<mxfile host="app.diagrams.net" modified="2024-07-05T21:52:45.811Z" agent="Mozilla/5.0 (Windows NT 10.0; Win64; x64) AppleWebKit/537.36 (KHTML, like Gecko) Chrome/126.0.0.0 Safari/537.36 Edg/126.0.0.0" etag="Dn2cJiSLXIPPAnMHo5kN" version="24.6.4" type="device">
  <diagram name="Página-1" id="rTytaWXG8r9Et1rBoM3T">
    <mxGraphModel dx="2778" dy="1423" grid="1" gridSize="10" guides="1" tooltips="1" connect="1" arrows="1" fold="1" page="1" pageScale="1" pageWidth="827" pageHeight="1169" math="0" shadow="0">
      <root>
        <mxCell id="0" />
        <mxCell id="1" parent="0" />
        <mxCell id="L1uXZ-0WNazWU3tWqJhK-36" style="edgeStyle=orthogonalEdgeStyle;rounded=1;orthogonalLoop=1;jettySize=auto;html=1;exitX=0.5;exitY=1;exitDx=0;exitDy=0;entryX=0.5;entryY=0;entryDx=0;entryDy=0;labelBackgroundColor=none;fontColor=default;fillColor=none;strokeColor=default;" edge="1" parent="1" source="L1uXZ-0WNazWU3tWqJhK-1" target="L1uXZ-0WNazWU3tWqJhK-4">
          <mxGeometry relative="1" as="geometry" />
        </mxCell>
        <mxCell id="L1uXZ-0WNazWU3tWqJhK-1" value="Identifica Cantidad de Barras" style="rounded=1;whiteSpace=wrap;html=1;labelBackgroundColor=none;fillColor=none;strokeColor=default;" vertex="1" parent="1">
          <mxGeometry x="130" y="70" width="110" height="50" as="geometry" />
        </mxCell>
        <mxCell id="L1uXZ-0WNazWU3tWqJhK-28" style="edgeStyle=orthogonalEdgeStyle;rounded=1;orthogonalLoop=1;jettySize=auto;html=1;exitX=0.5;exitY=1;exitDx=0;exitDy=0;entryX=0.5;entryY=0;entryDx=0;entryDy=0;labelBackgroundColor=none;fontColor=default;fillColor=none;strokeColor=default;" edge="1" parent="1" source="L1uXZ-0WNazWU3tWqJhK-4" target="L1uXZ-0WNazWU3tWqJhK-6">
          <mxGeometry relative="1" as="geometry" />
        </mxCell>
        <mxCell id="L1uXZ-0WNazWU3tWqJhK-29" style="edgeStyle=orthogonalEdgeStyle;rounded=1;orthogonalLoop=1;jettySize=auto;html=1;exitX=1;exitY=1;exitDx=0;exitDy=0;entryX=0.5;entryY=0;entryDx=0;entryDy=0;labelBackgroundColor=none;fontColor=default;fillColor=none;strokeColor=default;" edge="1" parent="1" source="L1uXZ-0WNazWU3tWqJhK-4" target="L1uXZ-0WNazWU3tWqJhK-7">
          <mxGeometry relative="1" as="geometry" />
        </mxCell>
        <mxCell id="L1uXZ-0WNazWU3tWqJhK-114" style="edgeStyle=orthogonalEdgeStyle;rounded=1;orthogonalLoop=1;jettySize=auto;html=1;exitX=0;exitY=1;exitDx=0;exitDy=0;entryX=0.5;entryY=0;entryDx=0;entryDy=0;fontColor=default;labelBackgroundColor=none;fillColor=none;strokeColor=default;" edge="1" parent="1" source="L1uXZ-0WNazWU3tWqJhK-4" target="L1uXZ-0WNazWU3tWqJhK-5">
          <mxGeometry relative="1" as="geometry" />
        </mxCell>
        <mxCell id="L1uXZ-0WNazWU3tWqJhK-4" value="Tipo de Barra" style="rhombus;whiteSpace=wrap;html=1;labelBackgroundColor=none;rounded=1;fillColor=none;strokeColor=default;" vertex="1" parent="1">
          <mxGeometry x="150" y="130" width="80" height="80" as="geometry" />
        </mxCell>
        <mxCell id="L1uXZ-0WNazWU3tWqJhK-14" style="edgeStyle=orthogonalEdgeStyle;rounded=1;orthogonalLoop=1;jettySize=auto;html=1;exitX=0.5;exitY=1;exitDx=0;exitDy=0;entryX=0.5;entryY=0;entryDx=0;entryDy=0;labelBackgroundColor=none;fontColor=default;fillColor=none;strokeColor=default;" edge="1" parent="1" source="L1uXZ-0WNazWU3tWqJhK-5" target="L1uXZ-0WNazWU3tWqJhK-8">
          <mxGeometry relative="1" as="geometry" />
        </mxCell>
        <mxCell id="L1uXZ-0WNazWU3tWqJhK-93" style="edgeStyle=orthogonalEdgeStyle;rounded=1;orthogonalLoop=1;jettySize=auto;html=1;exitX=0.5;exitY=1;exitDx=0;exitDy=0;entryX=0.5;entryY=0;entryDx=0;entryDy=0;fontColor=default;labelBackgroundColor=none;fillColor=none;strokeColor=default;" edge="1" parent="1" source="L1uXZ-0WNazWU3tWqJhK-5" target="L1uXZ-0WNazWU3tWqJhK-9">
          <mxGeometry relative="1" as="geometry" />
        </mxCell>
        <mxCell id="L1uXZ-0WNazWU3tWqJhK-5" value="Slack" style="rounded=1;whiteSpace=wrap;html=1;labelBackgroundColor=none;fillColor=none;strokeColor=default;" vertex="1" parent="1">
          <mxGeometry x="65.5" y="240" width="70" height="40" as="geometry" />
        </mxCell>
        <mxCell id="L1uXZ-0WNazWU3tWqJhK-17" style="edgeStyle=orthogonalEdgeStyle;rounded=1;orthogonalLoop=1;jettySize=auto;html=1;exitX=0.5;exitY=1;exitDx=0;exitDy=0;entryX=0.5;entryY=0;entryDx=0;entryDy=0;labelBackgroundColor=none;fontColor=default;fillColor=none;strokeColor=default;" edge="1" parent="1" source="L1uXZ-0WNazWU3tWqJhK-6" target="L1uXZ-0WNazWU3tWqJhK-10">
          <mxGeometry relative="1" as="geometry" />
        </mxCell>
        <mxCell id="L1uXZ-0WNazWU3tWqJhK-94" style="edgeStyle=orthogonalEdgeStyle;rounded=1;orthogonalLoop=1;jettySize=auto;html=1;exitX=0.5;exitY=1;exitDx=0;exitDy=0;entryX=0.5;entryY=0;entryDx=0;entryDy=0;fontColor=default;labelBackgroundColor=none;fillColor=none;strokeColor=default;" edge="1" parent="1" source="L1uXZ-0WNazWU3tWqJhK-6" target="L1uXZ-0WNazWU3tWqJhK-11">
          <mxGeometry relative="1" as="geometry" />
        </mxCell>
        <mxCell id="L1uXZ-0WNazWU3tWqJhK-6" value="PQ" style="rounded=1;whiteSpace=wrap;html=1;labelBackgroundColor=none;fillColor=none;strokeColor=default;" vertex="1" parent="1">
          <mxGeometry x="155.5" y="240" width="70" height="40" as="geometry" />
        </mxCell>
        <mxCell id="L1uXZ-0WNazWU3tWqJhK-95" style="edgeStyle=orthogonalEdgeStyle;rounded=1;orthogonalLoop=1;jettySize=auto;html=1;exitX=0.5;exitY=1;exitDx=0;exitDy=0;entryX=0.25;entryY=0;entryDx=0;entryDy=0;fontColor=default;labelBackgroundColor=none;fillColor=none;strokeColor=default;" edge="1" parent="1" source="L1uXZ-0WNazWU3tWqJhK-7" target="L1uXZ-0WNazWU3tWqJhK-13">
          <mxGeometry relative="1" as="geometry" />
        </mxCell>
        <mxCell id="L1uXZ-0WNazWU3tWqJhK-96" style="edgeStyle=orthogonalEdgeStyle;rounded=1;orthogonalLoop=1;jettySize=auto;html=1;exitX=0.5;exitY=1;exitDx=0;exitDy=0;entryX=0.5;entryY=0;entryDx=0;entryDy=0;fontColor=default;labelBackgroundColor=none;fillColor=none;strokeColor=default;" edge="1" parent="1" source="L1uXZ-0WNazWU3tWqJhK-7" target="L1uXZ-0WNazWU3tWqJhK-12">
          <mxGeometry relative="1" as="geometry" />
        </mxCell>
        <mxCell id="L1uXZ-0WNazWU3tWqJhK-7" value="PV" style="rounded=1;whiteSpace=wrap;html=1;labelBackgroundColor=none;fillColor=none;strokeColor=default;" vertex="1" parent="1">
          <mxGeometry x="254.5" y="240" width="70" height="40" as="geometry" />
        </mxCell>
        <mxCell id="L1uXZ-0WNazWU3tWqJhK-46" style="edgeStyle=orthogonalEdgeStyle;rounded=1;orthogonalLoop=1;jettySize=auto;html=1;exitX=0.5;exitY=1;exitDx=0;exitDy=0;entryX=0;entryY=0;entryDx=0;entryDy=0;labelBackgroundColor=none;fontColor=default;fillColor=none;strokeColor=default;" edge="1" parent="1" source="L1uXZ-0WNazWU3tWqJhK-8" target="L1uXZ-0WNazWU3tWqJhK-45">
          <mxGeometry relative="1" as="geometry" />
        </mxCell>
        <mxCell id="L1uXZ-0WNazWU3tWqJhK-8" value="V" style="rounded=1;whiteSpace=wrap;html=1;labelBackgroundColor=none;fillColor=none;strokeColor=default;" vertex="1" parent="1">
          <mxGeometry x="15.5" y="320" width="50" height="30" as="geometry" />
        </mxCell>
        <mxCell id="L1uXZ-0WNazWU3tWqJhK-47" style="edgeStyle=orthogonalEdgeStyle;rounded=1;orthogonalLoop=1;jettySize=auto;html=1;exitX=0.5;exitY=1;exitDx=0;exitDy=0;entryX=0;entryY=0;entryDx=0;entryDy=0;labelBackgroundColor=none;fontColor=default;fillColor=none;strokeColor=default;" edge="1" parent="1" source="L1uXZ-0WNazWU3tWqJhK-9" target="L1uXZ-0WNazWU3tWqJhK-45">
          <mxGeometry relative="1" as="geometry" />
        </mxCell>
        <mxCell id="L1uXZ-0WNazWU3tWqJhK-9" value="ángulo" style="rounded=1;whiteSpace=wrap;html=1;labelBackgroundColor=none;fillColor=none;strokeColor=default;" vertex="1" parent="1">
          <mxGeometry x="85.5" y="320" width="50" height="30" as="geometry" />
        </mxCell>
        <mxCell id="L1uXZ-0WNazWU3tWqJhK-48" style="edgeStyle=orthogonalEdgeStyle;rounded=1;orthogonalLoop=1;jettySize=auto;html=1;exitX=0.5;exitY=1;exitDx=0;exitDy=0;labelBackgroundColor=none;fontColor=default;fillColor=none;strokeColor=default;" edge="1" parent="1" source="L1uXZ-0WNazWU3tWqJhK-10" target="L1uXZ-0WNazWU3tWqJhK-45">
          <mxGeometry relative="1" as="geometry" />
        </mxCell>
        <mxCell id="L1uXZ-0WNazWU3tWqJhK-10" value="P" style="rounded=1;whiteSpace=wrap;html=1;labelBackgroundColor=none;fillColor=none;strokeColor=default;" vertex="1" parent="1">
          <mxGeometry x="160.5" y="320" width="50" height="30" as="geometry" />
        </mxCell>
        <mxCell id="L1uXZ-0WNazWU3tWqJhK-99" style="edgeStyle=orthogonalEdgeStyle;rounded=1;orthogonalLoop=1;jettySize=auto;html=1;exitX=0.5;exitY=1;exitDx=0;exitDy=0;fontColor=default;labelBackgroundColor=none;fillColor=none;strokeColor=default;" edge="1" parent="1" source="L1uXZ-0WNazWU3tWqJhK-11">
          <mxGeometry relative="1" as="geometry">
            <mxPoint x="195.5" y="410" as="targetPoint" />
          </mxGeometry>
        </mxCell>
        <mxCell id="L1uXZ-0WNazWU3tWqJhK-11" value="Q" style="rounded=1;whiteSpace=wrap;html=1;labelBackgroundColor=none;fillColor=none;strokeColor=default;" vertex="1" parent="1">
          <mxGeometry x="215.5" y="320" width="50" height="30" as="geometry" />
        </mxCell>
        <mxCell id="L1uXZ-0WNazWU3tWqJhK-55" style="edgeStyle=orthogonalEdgeStyle;rounded=1;orthogonalLoop=1;jettySize=auto;html=1;exitX=0.25;exitY=1;exitDx=0;exitDy=0;entryX=1;entryY=0;entryDx=0;entryDy=0;labelBackgroundColor=none;fontColor=default;fillColor=none;strokeColor=default;" edge="1" parent="1" source="L1uXZ-0WNazWU3tWqJhK-12" target="L1uXZ-0WNazWU3tWqJhK-45">
          <mxGeometry relative="1" as="geometry" />
        </mxCell>
        <mxCell id="L1uXZ-0WNazWU3tWqJhK-12" value="P" style="rounded=1;whiteSpace=wrap;html=1;labelBackgroundColor=none;fillColor=none;strokeColor=default;" vertex="1" parent="1">
          <mxGeometry x="295.5" y="320" width="50" height="30" as="geometry" />
        </mxCell>
        <mxCell id="L1uXZ-0WNazWU3tWqJhK-56" style="edgeStyle=orthogonalEdgeStyle;rounded=1;orthogonalLoop=1;jettySize=auto;html=1;exitX=0.25;exitY=1;exitDx=0;exitDy=0;entryX=1;entryY=0;entryDx=0;entryDy=0;labelBackgroundColor=none;fontColor=default;fillColor=none;strokeColor=default;" edge="1" parent="1" source="L1uXZ-0WNazWU3tWqJhK-13" target="L1uXZ-0WNazWU3tWqJhK-45">
          <mxGeometry relative="1" as="geometry" />
        </mxCell>
        <mxCell id="L1uXZ-0WNazWU3tWqJhK-13" value="V" style="rounded=1;whiteSpace=wrap;html=1;labelBackgroundColor=none;fillColor=none;strokeColor=default;" vertex="1" parent="1">
          <mxGeometry x="359.5" y="320" width="50" height="30" as="geometry" />
        </mxCell>
        <mxCell id="L1uXZ-0WNazWU3tWqJhK-34" style="edgeStyle=orthogonalEdgeStyle;rounded=1;orthogonalLoop=1;jettySize=auto;html=1;exitX=0;exitY=1;exitDx=0;exitDy=0;entryX=0.5;entryY=0;entryDx=0;entryDy=0;labelBackgroundColor=none;fontColor=default;fillColor=none;strokeColor=default;" edge="1" parent="1" source="L1uXZ-0WNazWU3tWqJhK-21" target="L1uXZ-0WNazWU3tWqJhK-1">
          <mxGeometry relative="1" as="geometry" />
        </mxCell>
        <mxCell id="L1uXZ-0WNazWU3tWqJhK-98" style="edgeStyle=orthogonalEdgeStyle;rounded=1;orthogonalLoop=1;jettySize=auto;html=1;exitX=1;exitY=1;exitDx=0;exitDy=0;entryX=0.5;entryY=0;entryDx=0;entryDy=0;fontColor=default;labelBackgroundColor=none;fillColor=none;strokeColor=default;" edge="1" parent="1" source="L1uXZ-0WNazWU3tWqJhK-21" target="L1uXZ-0WNazWU3tWqJhK-24">
          <mxGeometry relative="1" as="geometry" />
        </mxCell>
        <mxCell id="L1uXZ-0WNazWU3tWqJhK-21" value="SEP" style="ellipse;whiteSpace=wrap;html=1;labelBackgroundColor=none;rounded=1;fillColor=none;strokeColor=default;" vertex="1" parent="1">
          <mxGeometry x="330" width="90" height="50" as="geometry" />
        </mxCell>
        <mxCell id="L1uXZ-0WNazWU3tWqJhK-31" value="No" style="edgeStyle=orthogonalEdgeStyle;rounded=1;orthogonalLoop=1;jettySize=auto;html=1;exitX=1;exitY=1;exitDx=0;exitDy=0;entryX=0.25;entryY=0;entryDx=0;entryDy=0;labelBackgroundColor=none;fontColor=default;fillColor=none;strokeColor=default;" edge="1" parent="1" source="L1uXZ-0WNazWU3tWqJhK-24" target="L1uXZ-0WNazWU3tWqJhK-26">
          <mxGeometry relative="1" as="geometry" />
        </mxCell>
        <mxCell id="L1uXZ-0WNazWU3tWqJhK-24" value="¿Hay Ybus?" style="rhombus;whiteSpace=wrap;html=1;labelBackgroundColor=none;rounded=1;fillColor=none;strokeColor=default;" vertex="1" parent="1">
          <mxGeometry x="530" y="80" width="80" height="80" as="geometry" />
        </mxCell>
        <mxCell id="L1uXZ-0WNazWU3tWqJhK-97" style="edgeStyle=orthogonalEdgeStyle;rounded=1;orthogonalLoop=1;jettySize=auto;html=1;exitX=0.5;exitY=1;exitDx=0;exitDy=0;entryX=0.5;entryY=0;entryDx=0;entryDy=0;fontColor=default;labelBackgroundColor=none;fillColor=none;strokeColor=default;" edge="1" parent="1" source="L1uXZ-0WNazWU3tWqJhK-25" target="L1uXZ-0WNazWU3tWqJhK-32">
          <mxGeometry relative="1" as="geometry" />
        </mxCell>
        <mxCell id="L1uXZ-0WNazWU3tWqJhK-25" value="Usala&lt;span style=&quot;font-family: monospace; font-size: 0px; text-align: start; text-wrap: nowrap;&quot;&gt;%3CmxGraphModel%3E%3Croot%3E%3CmxCell%20id%3D%220%22%2F%3E%3CmxCell%20id%3D%221%22%20parent%3D%220%22%2F%3E%3CmxCell%20id%3D%222%22%20value%3D%22%C3%A1ngulo%22%20style%3D%22rounded%3D0%3BwhiteSpace%3Dwrap%3Bhtml%3D1%3B%22%20vertex%3D%221%22%20parent%3D%221%22%3E%3CmxGeometry%20x%3D%22250%22%20y%3D%22440%22%20width%3D%2250%22%20height%3D%2230%22%20as%3D%22geometry%22%2F%3E%3C%2FmxCell%3E%3C%2Froot%3E%3C%2FmxGraphModel%3E&lt;/span&gt;" style="rounded=1;whiteSpace=wrap;html=1;labelBackgroundColor=none;fillColor=none;strokeColor=default;" vertex="1" parent="1">
          <mxGeometry x="446" y="170" width="80" height="30" as="geometry" />
        </mxCell>
        <mxCell id="L1uXZ-0WNazWU3tWqJhK-57" style="edgeStyle=orthogonalEdgeStyle;rounded=1;orthogonalLoop=1;jettySize=auto;html=1;exitX=0.5;exitY=1;exitDx=0;exitDy=0;entryX=0.5;entryY=0;entryDx=0;entryDy=0;labelBackgroundColor=none;fontColor=default;fillColor=none;strokeColor=default;" edge="1" parent="1" source="L1uXZ-0WNazWU3tWqJhK-26" target="L1uXZ-0WNazWU3tWqJhK-38">
          <mxGeometry relative="1" as="geometry" />
        </mxCell>
        <mxCell id="L1uXZ-0WNazWU3tWqJhK-26" value="Créala" style="rounded=1;whiteSpace=wrap;html=1;labelBackgroundColor=none;fillColor=none;strokeColor=default;" vertex="1" parent="1">
          <mxGeometry x="631" y="170" width="80" height="30" as="geometry" />
        </mxCell>
        <mxCell id="L1uXZ-0WNazWU3tWqJhK-30" value="Si" style="edgeStyle=orthogonalEdgeStyle;rounded=1;orthogonalLoop=1;jettySize=auto;html=1;exitX=0;exitY=1;exitDx=0;exitDy=0;entryX=0.638;entryY=-0.053;entryDx=0;entryDy=0;entryPerimeter=0;labelBackgroundColor=none;fontColor=default;fillColor=none;strokeColor=default;" edge="1" parent="1" source="L1uXZ-0WNazWU3tWqJhK-24" target="L1uXZ-0WNazWU3tWqJhK-25">
          <mxGeometry relative="1" as="geometry" />
        </mxCell>
        <mxCell id="L1uXZ-0WNazWU3tWqJhK-32" value="Sacar valores G,B,θ" style="rounded=1;whiteSpace=wrap;html=1;labelBackgroundColor=none;fillColor=none;strokeColor=default;" vertex="1" parent="1">
          <mxGeometry x="443.5" y="430" width="90" height="50" as="geometry" />
        </mxCell>
        <mxCell id="L1uXZ-0WNazWU3tWqJhK-58" style="edgeStyle=orthogonalEdgeStyle;rounded=1;orthogonalLoop=1;jettySize=auto;html=1;exitX=0;exitY=0.5;exitDx=0;exitDy=0;entryX=0.75;entryY=0;entryDx=0;entryDy=0;labelBackgroundColor=none;fontColor=default;fillColor=none;strokeColor=default;" edge="1" parent="1" source="L1uXZ-0WNazWU3tWqJhK-38" target="L1uXZ-0WNazWU3tWqJhK-40">
          <mxGeometry relative="1" as="geometry" />
        </mxCell>
        <mxCell id="L1uXZ-0WNazWU3tWqJhK-61" style="edgeStyle=orthogonalEdgeStyle;rounded=1;orthogonalLoop=1;jettySize=auto;html=1;exitX=1;exitY=0.5;exitDx=0;exitDy=0;entryX=0.5;entryY=0;entryDx=0;entryDy=0;labelBackgroundColor=none;fontColor=default;fillColor=none;strokeColor=default;" edge="1" parent="1" source="L1uXZ-0WNazWU3tWqJhK-38" target="L1uXZ-0WNazWU3tWqJhK-41">
          <mxGeometry relative="1" as="geometry" />
        </mxCell>
        <mxCell id="L1uXZ-0WNazWU3tWqJhK-116" style="edgeStyle=orthogonalEdgeStyle;rounded=1;orthogonalLoop=1;jettySize=auto;html=1;exitX=0.5;exitY=1;exitDx=0;exitDy=0;entryX=0.5;entryY=0;entryDx=0;entryDy=0;fontColor=default;labelBackgroundColor=none;fillColor=none;strokeColor=default;" edge="1" parent="1" source="L1uXZ-0WNazWU3tWqJhK-38" target="L1uXZ-0WNazWU3tWqJhK-39">
          <mxGeometry relative="1" as="geometry" />
        </mxCell>
        <mxCell id="L1uXZ-0WNazWU3tWqJhK-38" value="Modelos" style="rhombus;whiteSpace=wrap;html=1;labelBackgroundColor=none;rounded=1;fillColor=none;strokeColor=default;" vertex="1" parent="1">
          <mxGeometry x="631" y="230" width="80" height="80" as="geometry" />
        </mxCell>
        <mxCell id="L1uXZ-0WNazWU3tWqJhK-117" style="edgeStyle=orthogonalEdgeStyle;rounded=1;orthogonalLoop=1;jettySize=auto;html=1;exitX=0.5;exitY=1;exitDx=0;exitDy=0;fontColor=default;labelBackgroundColor=none;fillColor=none;strokeColor=default;" edge="1" parent="1" source="L1uXZ-0WNazWU3tWqJhK-39" target="L1uXZ-0WNazWU3tWqJhK-67">
          <mxGeometry relative="1" as="geometry" />
        </mxCell>
        <mxCell id="L1uXZ-0WNazWU3tWqJhK-39" value="Trafo" style="rounded=1;whiteSpace=wrap;html=1;labelBackgroundColor=none;fillColor=none;strokeColor=default;" vertex="1" parent="1">
          <mxGeometry x="641" y="330" width="60" height="30" as="geometry" />
        </mxCell>
        <mxCell id="L1uXZ-0WNazWU3tWqJhK-115" style="edgeStyle=orthogonalEdgeStyle;rounded=1;orthogonalLoop=1;jettySize=auto;html=1;exitX=0.5;exitY=1;exitDx=0;exitDy=0;entryX=0.5;entryY=0;entryDx=0;entryDy=0;fontColor=default;labelBackgroundColor=none;fillColor=none;strokeColor=default;" edge="1" parent="1" source="L1uXZ-0WNazWU3tWqJhK-40" target="L1uXZ-0WNazWU3tWqJhK-67">
          <mxGeometry relative="1" as="geometry">
            <Array as="points">
              <mxPoint x="571" y="390" />
              <mxPoint x="671" y="390" />
            </Array>
          </mxGeometry>
        </mxCell>
        <mxCell id="L1uXZ-0WNazWU3tWqJhK-40" value="Línea de transmisión&amp;nbsp;" style="rounded=1;whiteSpace=wrap;html=1;labelBackgroundColor=none;fillColor=none;strokeColor=default;" vertex="1" parent="1">
          <mxGeometry x="533.5" y="300" width="75" height="40" as="geometry" />
        </mxCell>
        <mxCell id="L1uXZ-0WNazWU3tWqJhK-118" style="edgeStyle=orthogonalEdgeStyle;rounded=1;orthogonalLoop=1;jettySize=auto;html=1;exitX=0.5;exitY=1;exitDx=0;exitDy=0;fontColor=default;labelBackgroundColor=none;fillColor=none;strokeColor=default;" edge="1" parent="1" source="L1uXZ-0WNazWU3tWqJhK-41">
          <mxGeometry relative="1" as="geometry">
            <mxPoint x="670" y="440.0000000000001" as="targetPoint" />
            <Array as="points">
              <mxPoint x="769" y="390" />
              <mxPoint x="671" y="390" />
              <mxPoint x="671" y="440" />
            </Array>
          </mxGeometry>
        </mxCell>
        <mxCell id="L1uXZ-0WNazWU3tWqJhK-41" value="Generador" style="rounded=1;whiteSpace=wrap;html=1;labelBackgroundColor=none;fillColor=none;strokeColor=default;" vertex="1" parent="1">
          <mxGeometry x="731" y="310" width="75" height="40" as="geometry" />
        </mxCell>
        <mxCell id="L1uXZ-0WNazWU3tWqJhK-120" style="edgeStyle=orthogonalEdgeStyle;rounded=1;orthogonalLoop=1;jettySize=auto;html=1;exitX=0.5;exitY=1;exitDx=0;exitDy=0;entryX=0.5;entryY=0;entryDx=0;entryDy=0;fontColor=default;labelBackgroundColor=none;fillColor=none;strokeColor=default;" edge="1" parent="1" source="L1uXZ-0WNazWU3tWqJhK-45" target="L1uXZ-0WNazWU3tWqJhK-65">
          <mxGeometry relative="1" as="geometry" />
        </mxCell>
        <mxCell id="L1uXZ-0WNazWU3tWqJhK-45" value="Crear Sist con Matriz" style="rounded=1;whiteSpace=wrap;html=1;labelBackgroundColor=none;fillColor=none;strokeColor=default;" vertex="1" parent="1">
          <mxGeometry x="135.5" y="410" width="120" height="40" as="geometry" />
        </mxCell>
        <mxCell id="L1uXZ-0WNazWU3tWqJhK-127" style="edgeStyle=orthogonalEdgeStyle;rounded=1;orthogonalLoop=1;jettySize=auto;html=1;exitX=1;exitY=0.5;exitDx=0;exitDy=0;entryX=0;entryY=0.75;entryDx=0;entryDy=0;fontColor=default;labelBackgroundColor=none;fillColor=none;strokeColor=default;" edge="1" parent="1" source="L1uXZ-0WNazWU3tWqJhK-65" target="L1uXZ-0WNazWU3tWqJhK-66">
          <mxGeometry relative="1" as="geometry" />
        </mxCell>
        <mxCell id="L1uXZ-0WNazWU3tWqJhK-65" value="" style="rounded=1;whiteSpace=wrap;html=1;labelBackgroundColor=none;fillColor=none;strokeColor=default;" vertex="1" parent="1">
          <mxGeometry x="20" y="495" width="420" height="155" as="geometry" />
        </mxCell>
        <mxCell id="L1uXZ-0WNazWU3tWqJhK-91" style="edgeStyle=orthogonalEdgeStyle;rounded=1;orthogonalLoop=1;jettySize=auto;html=1;exitX=0.5;exitY=1;exitDx=0;exitDy=0;entryX=0.5;entryY=0;entryDx=0;entryDy=0;fontColor=default;labelBackgroundColor=none;fillColor=none;strokeColor=default;" edge="1" parent="1" source="L1uXZ-0WNazWU3tWqJhK-66" target="L1uXZ-0WNazWU3tWqJhK-77">
          <mxGeometry relative="1" as="geometry" />
        </mxCell>
        <mxCell id="L1uXZ-0WNazWU3tWqJhK-92" style="edgeStyle=orthogonalEdgeStyle;rounded=1;orthogonalLoop=1;jettySize=auto;html=1;exitX=0.5;exitY=1;exitDx=0;exitDy=0;entryX=0.5;entryY=0;entryDx=0;entryDy=0;fontColor=default;labelBackgroundColor=none;fillColor=none;strokeColor=default;" edge="1" parent="1" source="L1uXZ-0WNazWU3tWqJhK-66" target="L1uXZ-0WNazWU3tWqJhK-78">
          <mxGeometry relative="1" as="geometry" />
        </mxCell>
        <mxCell id="L1uXZ-0WNazWU3tWqJhK-66" value="Obtener valores intrínsecos&amp;nbsp;" style="rounded=1;whiteSpace=wrap;html=1;labelBackgroundColor=none;fillColor=none;strokeColor=default;" vertex="1" parent="1">
          <mxGeometry x="590" y="550" width="110" height="40" as="geometry" />
        </mxCell>
        <mxCell id="L1uXZ-0WNazWU3tWqJhK-67" value="Sumar y ensamblar Ybus" style="rounded=1;whiteSpace=wrap;html=1;labelBackgroundColor=none;fillColor=none;strokeColor=default;" vertex="1" parent="1">
          <mxGeometry x="611" y="420" width="120" height="60" as="geometry" />
        </mxCell>
        <mxCell id="L1uXZ-0WNazWU3tWqJhK-73" style="edgeStyle=orthogonalEdgeStyle;rounded=1;orthogonalLoop=1;jettySize=auto;html=1;exitX=0;exitY=0.5;exitDx=0;exitDy=0;entryX=1;entryY=0.25;entryDx=0;entryDy=0;labelBackgroundColor=none;fontColor=default;fillColor=none;strokeColor=default;" edge="1" parent="1" source="L1uXZ-0WNazWU3tWqJhK-67" target="L1uXZ-0WNazWU3tWqJhK-32">
          <mxGeometry relative="1" as="geometry" />
        </mxCell>
        <mxCell id="L1uXZ-0WNazWU3tWqJhK-74" style="edgeStyle=orthogonalEdgeStyle;rounded=1;orthogonalLoop=1;jettySize=auto;html=1;exitX=0.5;exitY=1;exitDx=0;exitDy=0;entryX=0.645;entryY=0;entryDx=0;entryDy=0;entryPerimeter=0;labelBackgroundColor=none;fontColor=default;fillColor=none;strokeColor=default;" edge="1" parent="1" source="L1uXZ-0WNazWU3tWqJhK-32" target="L1uXZ-0WNazWU3tWqJhK-66">
          <mxGeometry relative="1" as="geometry" />
        </mxCell>
        <mxCell id="L1uXZ-0WNazWU3tWqJhK-101" style="edgeStyle=orthogonalEdgeStyle;rounded=1;orthogonalLoop=1;jettySize=auto;html=1;exitX=0.25;exitY=1;exitDx=0;exitDy=0;fontColor=default;labelBackgroundColor=none;fillColor=none;strokeColor=default;" edge="1" parent="1" source="L1uXZ-0WNazWU3tWqJhK-77" target="L1uXZ-0WNazWU3tWqJhK-80">
          <mxGeometry relative="1" as="geometry" />
        </mxCell>
        <mxCell id="L1uXZ-0WNazWU3tWqJhK-103" style="edgeStyle=orthogonalEdgeStyle;rounded=1;orthogonalLoop=1;jettySize=auto;html=1;exitX=0.25;exitY=1;exitDx=0;exitDy=0;entryX=0.5;entryY=0;entryDx=0;entryDy=0;fontColor=default;labelBackgroundColor=none;fillColor=none;strokeColor=default;" edge="1" parent="1" source="L1uXZ-0WNazWU3tWqJhK-77" target="L1uXZ-0WNazWU3tWqJhK-83">
          <mxGeometry relative="1" as="geometry" />
        </mxCell>
        <mxCell id="L1uXZ-0WNazWU3tWqJhK-104" style="edgeStyle=orthogonalEdgeStyle;rounded=1;orthogonalLoop=1;jettySize=auto;html=1;exitX=0.25;exitY=1;exitDx=0;exitDy=0;entryX=0.25;entryY=0;entryDx=0;entryDy=0;fontColor=default;labelBackgroundColor=none;fillColor=none;strokeColor=default;" edge="1" parent="1" source="L1uXZ-0WNazWU3tWqJhK-77" target="L1uXZ-0WNazWU3tWqJhK-84">
          <mxGeometry relative="1" as="geometry" />
        </mxCell>
        <mxCell id="L1uXZ-0WNazWU3tWqJhK-77" value="Pij" style="rounded=1;whiteSpace=wrap;html=1;labelBackgroundColor=none;fillColor=none;strokeColor=default;" vertex="1" parent="1">
          <mxGeometry x="582" y="640" width="54" height="20" as="geometry" />
        </mxCell>
        <mxCell id="L1uXZ-0WNazWU3tWqJhK-106" style="edgeStyle=orthogonalEdgeStyle;rounded=1;orthogonalLoop=1;jettySize=auto;html=1;exitX=0.75;exitY=1;exitDx=0;exitDy=0;entryX=0.5;entryY=0;entryDx=0;entryDy=0;fontColor=default;labelBackgroundColor=none;fillColor=none;strokeColor=default;" edge="1" parent="1" source="L1uXZ-0WNazWU3tWqJhK-78" target="L1uXZ-0WNazWU3tWqJhK-83">
          <mxGeometry relative="1" as="geometry" />
        </mxCell>
        <mxCell id="L1uXZ-0WNazWU3tWqJhK-78" value="Qij" style="rounded=1;whiteSpace=wrap;html=1;labelBackgroundColor=none;fillColor=none;strokeColor=default;" vertex="1" parent="1">
          <mxGeometry x="662" y="640" width="54" height="20" as="geometry" />
        </mxCell>
        <mxCell id="L1uXZ-0WNazWU3tWqJhK-130" style="edgeStyle=orthogonalEdgeStyle;rounded=1;orthogonalLoop=1;jettySize=auto;html=1;exitX=0.5;exitY=1;exitDx=0;exitDy=0;entryX=0.5;entryY=0;entryDx=0;entryDy=0;fontColor=default;labelBackgroundColor=none;fillColor=none;strokeColor=default;" edge="1" parent="1" source="L1uXZ-0WNazWU3tWqJhK-80" target="L1uXZ-0WNazWU3tWqJhK-86">
          <mxGeometry relative="1" as="geometry" />
        </mxCell>
        <mxCell id="L1uXZ-0WNazWU3tWqJhK-80" value="Mij" style="rounded=1;whiteSpace=wrap;html=1;labelBackgroundColor=none;fillColor=none;strokeColor=default;" vertex="1" parent="1">
          <mxGeometry x="489" y="700" width="54" height="20" as="geometry" />
        </mxCell>
        <mxCell id="L1uXZ-0WNazWU3tWqJhK-132" style="edgeStyle=orthogonalEdgeStyle;rounded=1;orthogonalLoop=1;jettySize=auto;html=1;exitX=0.5;exitY=1;exitDx=0;exitDy=0;entryX=0.5;entryY=0;entryDx=0;entryDy=0;fontColor=default;labelBackgroundColor=none;fillColor=none;strokeColor=default;" edge="1" parent="1" source="L1uXZ-0WNazWU3tWqJhK-82" target="L1uXZ-0WNazWU3tWqJhK-86">
          <mxGeometry relative="1" as="geometry" />
        </mxCell>
        <mxCell id="L1uXZ-0WNazWU3tWqJhK-82" value="Nij" style="rounded=1;whiteSpace=wrap;html=1;labelBackgroundColor=none;fillColor=none;strokeColor=default;" vertex="1" parent="1">
          <mxGeometry x="567" y="700" width="54" height="20" as="geometry" />
        </mxCell>
        <mxCell id="L1uXZ-0WNazWU3tWqJhK-133" style="edgeStyle=orthogonalEdgeStyle;rounded=1;orthogonalLoop=1;jettySize=auto;html=1;exitX=0.5;exitY=1;exitDx=0;exitDy=0;fontColor=default;labelBackgroundColor=none;fillColor=none;strokeColor=default;" edge="1" parent="1" source="L1uXZ-0WNazWU3tWqJhK-83" target="L1uXZ-0WNazWU3tWqJhK-86">
          <mxGeometry relative="1" as="geometry" />
        </mxCell>
        <mxCell id="L1uXZ-0WNazWU3tWqJhK-83" value="Hij" style="rounded=1;whiteSpace=wrap;html=1;labelBackgroundColor=none;fillColor=none;strokeColor=default;" vertex="1" parent="1">
          <mxGeometry x="665" y="700" width="54" height="20" as="geometry" />
        </mxCell>
        <mxCell id="L1uXZ-0WNazWU3tWqJhK-134" style="edgeStyle=orthogonalEdgeStyle;rounded=1;orthogonalLoop=1;jettySize=auto;html=1;exitX=0.5;exitY=1;exitDx=0;exitDy=0;fontColor=default;labelBackgroundColor=none;fillColor=none;strokeColor=default;" edge="1" parent="1" source="L1uXZ-0WNazWU3tWqJhK-84" target="L1uXZ-0WNazWU3tWqJhK-86">
          <mxGeometry relative="1" as="geometry" />
        </mxCell>
        <mxCell id="L1uXZ-0WNazWU3tWqJhK-84" value="Lij" style="rounded=1;whiteSpace=wrap;html=1;labelBackgroundColor=none;fillColor=none;strokeColor=default;" vertex="1" parent="1">
          <mxGeometry x="752" y="700" width="54" height="20" as="geometry" />
        </mxCell>
        <mxCell id="L1uXZ-0WNazWU3tWqJhK-135" style="edgeStyle=orthogonalEdgeStyle;rounded=1;orthogonalLoop=1;jettySize=auto;html=1;exitX=0.5;exitY=1;exitDx=0;exitDy=0;entryX=0.5;entryY=0;entryDx=0;entryDy=0;fontColor=default;labelBackgroundColor=none;fillColor=none;strokeColor=default;" edge="1" parent="1" source="L1uXZ-0WNazWU3tWqJhK-86" target="L1uXZ-0WNazWU3tWqJhK-88">
          <mxGeometry relative="1" as="geometry" />
        </mxCell>
        <mxCell id="L1uXZ-0WNazWU3tWqJhK-86" value="Despejar matriz y operar" style="rounded=1;whiteSpace=wrap;html=1;labelBackgroundColor=none;fillColor=none;strokeColor=default;" vertex="1" parent="1">
          <mxGeometry x="585" y="760" width="120" height="60" as="geometry" />
        </mxCell>
        <mxCell id="L1uXZ-0WNazWU3tWqJhK-124" style="edgeStyle=orthogonalEdgeStyle;rounded=1;orthogonalLoop=1;jettySize=auto;html=1;exitX=0.5;exitY=1;exitDx=0;exitDy=0;entryX=0.5;entryY=0;entryDx=0;entryDy=0;fontColor=default;labelBackgroundColor=none;fillColor=none;strokeColor=default;" edge="1" parent="1" source="L1uXZ-0WNazWU3tWqJhK-87" target="L1uXZ-0WNazWU3tWqJhK-123">
          <mxGeometry relative="1" as="geometry" />
        </mxCell>
        <mxCell id="L1uXZ-0WNazWU3tWqJhK-87" value="" style="rounded=1;whiteSpace=wrap;html=1;labelBackgroundColor=none;fillColor=none;strokeColor=default;" vertex="1" parent="1">
          <mxGeometry x="272.25" y="850" width="68.5" height="120" as="geometry" />
        </mxCell>
        <mxCell id="L1uXZ-0WNazWU3tWqJhK-88" value="" style="rounded=1;whiteSpace=wrap;html=1;labelBackgroundColor=none;fillColor=none;strokeColor=default;" vertex="1" parent="1">
          <mxGeometry x="477.5" y="850" width="335" height="140" as="geometry" />
        </mxCell>
        <mxCell id="L1uXZ-0WNazWU3tWqJhK-90" value="" style="shape=image;verticalLabelPosition=bottom;labelBackgroundColor=none;verticalAlign=top;aspect=fixed;imageAspect=0;image=data:image/png,iVBORw0KGgoAAAANSUhEUgAAAG4AAADrCAMAAAC/+FOiAAAAAXNSR0IArs4c6QAAAARnQU1BAACxjwv8YQUAAAMAUExURQAAAAAAAAAAAAAAAAAAAAAAAAAAAAAAAAAAAAAAAAAAAAAAAAAAAAAAAAAAAAAAAAAAAAAAAAAAAAAAAAAAAAAAAAAAAAAAAAAAAAAAAAAAAAAAAAAAAAAAAAAAAAAAAAAAAAAAAAAAAAAAAAAAAAAAAAAAAAAAAAAAAAAAAAAAAAAAAAAAAAAAAAAAAAAAAAAAAAAAAAAAAAAAAAAAAAAAAAAAAAAAAAAAAAAAAAAAAAAAAAAAAAAAAAAAAAAAAAAAAAAAAAAAAAAAAAAAAAAAAAAAAAAAAAAAAAAAAAAAAAAAAAAAAAAAAAAAAAAAAAAAAAAAAAAAAAAAAAAAAAAAAAAAAAAAAAAAAAAAAAAAAAAAAAAAAAAAAAAAAAAAAAAAAAAAAAAAAAAAAAAAAAAAAAAAAAAAAAAAAAAAAAAAAAAAAAAAAAAAAAAAAAAAAAAAAAAAAAAAAAAAAAAAAAAAAAAAAAAAAAAAAAAAAAAAAAAAAAAAAAAAAAAAAAAAAAAAAAAAAAAAAAAAAAAAAAAAAAAAAAAAAAAAAAAAAAAAAAAAAAAAAAAAAAAAAAAAAAAAAAAAAAAAAAAAAAAAAAAAAAAAAAAAAAAAAAAAAAAAAAAAAAAAAAAAAAAAAAAAAAAAAAAAAAAAAAAAAAAAAAAAAAAAAAAAAAAAAAAAAAAAAAAAAAAAAAAAAAAAAAAAAAAAAAAAAAAAAAAAAAAAAAAAAAAAAAAAAAAAAAAAAAAAAAAAAAAAAAAAAAAAAAAAAAAAAAAAAAAAAAAAAAAAAAAAAAAAAAAAAAAAAAAAAAAAAAAAAAAAAAAAAAAAAAAAAAAAAAAAAAAAAAAAAAAAAAAAAAAAAAAAAAAAAAAAAAAAAAAAAAAAAAAAAAAAAAAAAAAAAAAAAAAAAAAAAAAAAAAAAAAAAAAAAAAAAAAAAAAAAAAAAAAAAAAAAAAAAAAAAAAAAAAAAAAAAAAAAAAAAAAAAAAAAAAAAAAAAAAAAAAAAAAAAAAAAAAAAAAAAAAAALMw9IgAAAD/dFJOUwABAgMEBQYHCAkKCwwNDg8QERITFBUWFxgZGhscHR4fICEiIyQlJicoKSorLC0uLzAxMjM0NTY3ODk6Ozw9Pj9AQUJDREVGR0hJSktMTU5PUFFSU1RVVldYWVpbXF1eX2BhYmNkZWZnaGlqa2xtbm9wcXJzdHV2d3h5ent8fX5/gIGCg4SFhoeIiYqLjI2Oj5CRkpOUlZaXmJmam5ydnp+goaKjpKWmp6ipqqusra6vsLGys7S1tre4ubq7vL2+v8DBwsPExcbHyMnKy8zNzs/Q0dLT1NXW19jZ2tvc3d7f4OHi4+Tl5ufo6err7O3u7/Dx8vP09fb3+Pn6+/z9/usI2TUAAAAJcEhZcwAAFxEAABcRAcom8z8AAA0vSURBVHhe7Z1nQBTHHsDnCh2kCQgqithFrEERG6ioaEQiIqgJolJE0Vii7xkkEQUFe8UTEAgQQlBAUFHQ2LA8wd6xxIKBBLAgoj6eztsye7cHlztg9vwQ9/fl/jO33I/dndndmZuZAwjxcUhTORvlkNh3RoEUg0GmKEJYJqM/fBQoRlmNQKp76Y9yABA4HkrsimIaY++kM5cOLbdHSRKrVPSHTdOdgNk+JB4dUA4Aomj4egaKaQbHfOub+f7GJJQk0RlI/VnQ2fKgpuhOwlAUMgjtjkKY1h6lKHyPdgM2/gHdUJKFOLGqibpIFDIYLIovgWWLBShJ4nV6OorqY5FWiacTfJH11ZJyeNQWpUn67durYM9IsHWmoXkdLbLhH/M1UAaBaUTlzjYolgdbNyxzuhaYUwEPt0YZBKIJpbWLDFBCDlydRcQhKwDscmG5rw7KAsLxB6rhmb4oJQeuzi0nSASA5sw/P2SZo6wWy86vD7j/brkhSrPB1Jmty2hJvnbMghUTtKgs4H850UqUAXN7kIkOvbWpTASmziN7DvWq7VcNk6nSIRhavN8G6IdX3xpNXLqmzPv+uy9ZpQZPp7stBX1Wp3z4dDxxWIFO0otvAdCYUvrQDWj75AR9nXM30oTehgBPN2b/AhQZhNRACalud/XRWKK0uD7+zR5Yr9/eQeBy7ckE8v+gwNIJt2+xRiGwOQpLxhN1YNzTsw7EwZ1bGd8KtN+T1x1Y/vxyrvT84eiEA44Ho5DwBFb8b6cV0F7wPJGogUabH/uJgFZXV1PQ+ufSsUK0EZZOe1XqrOGD+9vZtiNo7ZgPH3wFxLMqczoR15Xsg33QVhOv7JHd+3B0vS9fP1N87mTBwRyCrMx7EMYZg87nbnkB/elHp6KriuX2rJ50RIKhMwqv/IDumRR1NbXXvIjbwU9payO3+regNzJeuM2RjigwdOZL10dHsVi7JmrDNOI+1H/d4WQPtI2J34YhWj1acXLu2Lc4BJUlEDEfr+u901lz6BYv6eUUR6cSrdGp4T5+YVGjOakIKumQXfPs6V+VBWbS46BWneFIT++pPt4jUJJArbqG8DoWvE4ZvI4Fr1MGr2PB65Txz9aZpVY0qV8FU2f1a1XwJ9Q5nHyzErU6GwOubmTRh93Sh07ViE/BNShsFqMvwhRdFDcCcQEMR6FCzKfPGyjXGK/HgJO1kU05mLkN+sTkGFQJMzqiWBGdD1Y0qSIcgCtQqBCHe9Upf9M/RdH1UOVcDnVmQZGdpc0dBXCsE+igdt3fwLFOFbyOxeet02jTX9YBpgCOdXYnns7TR7EiONY5vYa/2KBYERzrusQmuyvqpWXgWKfbpROKFMOxThW8jgWvUwbHulYBy4Yqe9LiWDeoCv7K/mqtPhzr+l18Fq/sSYxjnZnP7F6sL/IawLFOoKmpoMtYBsc6VfA6FrxOGbyOBa9TBq9j8TnqIiKtUESj7xSWv3u+ov4cLnTOZQ+GoJCmW2TSnksvz7BHUiE40Bn+BF/8IDf2Zuppd32PgzljUZIFvk40Iqca3hiDUhRzbzgCYNMOpdjg6zrHLoqv+SBhP12Oyl/LDM2pB7ZOI+BmX4fzsGQi65GoU/qfIYqbzNi6HglbWorWwrrdeiiDQCPk3e2xCp/IcHXaS873FAG3a7BkJOtj3EpgstwwPAZcXe+98ZoAmETDui3SNrlDVEzMf6sCFXUCY+q0vj/SjxzZ4/YA3nVCh++LlMK5Q6/Cn6yBlgXxr8iBqeuduZ16tdwA4UojMhK0Tb/qCfQkdcXOwNA92NXRycnZSbqjeDpBaLYLHbk+huccyEAU+kpiArRDKso9gcHSV2VXrhVdymhFbUOAp7M+Fof6Zi23fvi4mDx0LfKfepKj/J5ccCT2+fbdotMXTn0rvebg6QJTJ6BI6PIQ5pKjWx3vXyMuoJrflKe3B/a7Btq277MxyUJaKbB0Br9FSC8mxhtqXgUAoLP4RU534p3VL8I0QVtPohj5FYxEmxDg6MSue1ljQ1qdhukdgPai53HE3cgk4T/EVVSjhQj02L2B1eDD0RlJTm1exrB0yTVYHggEg8pOE81X+7NR6Kq5fB27vmPotD0r0BgqKSd6AP3NF6M9PDZmD6M3ssoJowMaDJ3RosLiiyyKi4r3uxO3vzl5+dnJLvSHCv2KF1IBAkMn0NZrAFkVxG0ceuqjsqgR88CPjmhwzl0j0Nz3py8KKdSs0zr1Tm5AuLr3LuWI3FOTmnXCwYPk+orVrKvP56czaGlKYGYuRfadnDp0PuvDw1eu2rxjO83OXbPQG+rROQf6Eszyn03jHyx7+laHTt/E2NjYyFCKsawB8A8oKnqsPSNR8965hvizCVDzuQtIRGWSRt0l09AC1TcG9dY7JSjQGX4dxJpGogJ8XY87T0ejEABdt22bItdsjfEnm19dVmyM3iqZQr9Dg63TC3oL11CtAxJ9r72lEF7OXEIW5p5Jj+C9Q7LJXgTYugE5he9vjUMJkoXP//BBoW1iqjMKEbg6reCDi36HG1kt88n3P6JnPaHrJfIxmg2ubsjOb9rmwGJXlCSez0ZegTF02H3NKjM6koKp04jI1AcLyt5LZBeevudgMhVoLdjXYBogpm5gcigA7fPg9VEoA4DWx2AGdWxdkuY16A7A02ntTCOn/X1X8SZB+gSkuR/mks3HNtGbGnau4Okcjv5Ivtgdhr/L6l4iPEocROHy9OEogwWWTmOLpDcVLHv9JlZa96Lg2S+IZmX+j2TD1nyo+6hexvQbBFg6+yLU3uiTCx85MyfqX3VXXIDBjq3kiCrBzLyLBen/tmbqA45Ob5lkAB2JQj68Xc9Mv5lfXTJOxzd3HKnX3eZvbbepgpr/RIKj61E4lRnR1usgvMfMiJld/mxa9xNrKHunS3GmYETtk37UO1g6/Zk/S2e2avrCj6HoFE19WLk5NJuWWx9L7Qg6Fj0cSKWwdD0zhqKIoGU+vDWIDidceffknDe931rOjvqg270jTH1vvk43uCwsYA7DkrwPMIwunH2PQLjPkgopDL97MIPpbmy+buBV1CCX8vgr6g2jJHhzjOzSrON3fKF0HF7zdWPu3L5bIuXundu37wTS76x6sV7Wt6HxZXqYlh6jaL5O25xsSbAxQz2oY0Kp3jEK4fjEBWLxPGYKNUZR+Vt0DWWfOPiCxAi0veiGkurQsWgjgaW5BacLOah3jUDklHC26Nat67uYniM162yHjRg2bJjLKGZonJoPZn14HQtepwxex4LXKYPXseB1yuB1LHidMjjWiU0tlU5i4lhnvWLDpE84Yt/pOcztjmJFcKzrc7kqmtW0awDHOt2eDq2VfRzHOlXwOhafuU5Qrze4HhzrDD1CRyqbaMqxbkDJ87xeKFYExzqnlzBFtmxbQzjWmQeuZi841wCui4oKeB2LT61TMWdZFU2ds6xiRrYqmjojW8V8cw0bB6X/fFPnm6uYTW8jOe6ubKpmU2fTq9ANeQOz5VeblIfjtQJ6nStdbYFiRXC8EoJ2p54Wym5Bn3idB36NDha8Thm8jgWvUwavY/HZ6URt2ytbnkYefJ1VVIxsPU6Nbt5TJ3pM8xtL/ge2MyZPnDJzOPvZBVunMelV3Tzp047JrL0X7t84snc12XU0+PD1sot5wbLxHBzo2sXVwEPSVo+Ji9uO6r++72dHDv828Dz5x7oRcmNkcHUCt7O/vnzty3wPLxBrznhStwSt5Gm/Z55sYVAKXF27qPQp92Aa62HP7SZcS0dmi5Pqz+PC1fkc+NJsV+3LAJQkcCyCcXQ06bCX/L5h66wlv+gC1/swSzZEq+NJmEaNQbCNS2/Q14ipCz4yDQDD+NqKpSgDAP08mEUWRp01x+uNuCPA01llJJHfiI+5CX+TrdWUDg+T38qPLt5Ep9ng6ULyiJ0DwDi2rjJUemnZAU/1InY5IbM3UVLbWGoKRSKRLhrigaUz27+TbhBMvAkLpQurhH8sHgrAgkI/ojaIdyT4enp5TnJD85xwdJpT90+mI6s4WBXCTMBbUnvLDXS9sptclVvjYG15aemzstWoCxdHZ5IWjYa5Cqc8/ljA1LE5VY88DKOOkaP+hB0jtiycPDm20A1NVcPQabmd8GCGolknweqv0e75Pi2f715EraOuOTpssBB03zSGuahi6FrtWC1bw8j1HsxGvVNTSqoOHYunTqq4ywgLYJ8ga443XycekuvbgcGmj6SuwpMufiPOv319fzCz30AUdIpaQp2i+TrLiOLMpFSalJS4LAhT6cVArDPgixWyBrh1+DrZHMNm64QDTtS8rqF58+ZNzeu376+7U5dIYSw8wFqFxD3RW9aebbZOd9T6bVu3UezYFRsXFxuzS+JNXyM3PfORHkoAVp5grbbfbJ3YtE0rBkur1iTtzOmTZ+sgG2kL9FIu26GQoPnnrpHYFlzGWlq8iX1i/W88ZJZQJ2jqb1so+OUO5Vj/ENGWeGnmL3co+F2SRtHM3yVR+KsrjaApv7oCwP8Bg/8SZ7BzBBsAAAAASUVORK5CYII=;rounded=1;fillColor=none;strokeColor=default;" vertex="1" parent="1">
          <mxGeometry x="288.25" y="856.5899999999999" width="50" height="106.81" as="geometry" />
        </mxCell>
        <mxCell id="L1uXZ-0WNazWU3tWqJhK-102" style="edgeStyle=orthogonalEdgeStyle;rounded=1;orthogonalLoop=1;jettySize=auto;html=1;exitX=0.25;exitY=1;exitDx=0;exitDy=0;entryX=0.543;entryY=0.123;entryDx=0;entryDy=0;entryPerimeter=0;fontColor=default;labelBackgroundColor=none;fillColor=none;strokeColor=default;" edge="1" parent="1" source="L1uXZ-0WNazWU3tWqJhK-77" target="L1uXZ-0WNazWU3tWqJhK-82">
          <mxGeometry relative="1" as="geometry" />
        </mxCell>
        <mxCell id="L1uXZ-0WNazWU3tWqJhK-123" value="Primera iteración" style="ellipse;whiteSpace=wrap;html=1;labelBackgroundColor=none;rounded=1;fillColor=none;strokeColor=default;" vertex="1" parent="1">
          <mxGeometry x="250.5" y="995" width="109" height="60" as="geometry" />
        </mxCell>
        <mxCell id="L1uXZ-0WNazWU3tWqJhK-136" style="edgeStyle=orthogonalEdgeStyle;rounded=1;orthogonalLoop=1;jettySize=auto;html=1;exitX=0;exitY=0.5;exitDx=0;exitDy=0;entryX=1.002;entryY=0.577;entryDx=0;entryDy=0;entryPerimeter=0;fontColor=default;labelBackgroundColor=none;fillColor=none;strokeColor=default;" edge="1" parent="1" source="L1uXZ-0WNazWU3tWqJhK-88" target="L1uXZ-0WNazWU3tWqJhK-87">
          <mxGeometry relative="1" as="geometry" />
        </mxCell>
        <mxCell id="L1uXZ-0WNazWU3tWqJhK-137" value="" style="shape=image;verticalLabelPosition=bottom;labelBackgroundColor=none;verticalAlign=top;aspect=fixed;imageAspect=0;image=data:image/png,iVBORw0KGgoAAAANSUhEUgAAAlcAAADUCAYAAACxgAbbAAAAAXNSR0IArs4c6QAAIABJREFUeF7tnQUY9Uh1/l/+OMWLS3GX4u7F3QsUW2RxXaBAoUiB4m7Fvbi7FC8uxR2KLO5SvP/8YE6Znc0kmXuTSXLvOc/zPfvtdyfJzDuTM+8cy2HksnYE/rdjAO+QdPG1D9D77wg4Ao6AI/AnBO4r6T4dWKDv0fsuMyNwmJmf74/fHgHIVdfL1EauzinpStGjuYethRdL+oykK0a/n0gSf0x4wdcocb/jMX9a0kuC4sqN61mSvrbGQa+8z7m1xvw9WdJ3k3lrm9c1QWDjtUMT72WKwcWad54/qdi7u6bxrrGvsf609da2TnP6Zhv9ybUXzYDGmnBytZAV5eRqIROxRTeMXJVYqDj5MPdnlHStQBqeHfpgL74p6htJOnkgH5AuZBvlsMVQt7oUxXPrQBzt5He/cEfIKX9sXCgv2kO6XrriMW8F2EIu7luHMdFI5/U1zSHiIwsZx5Bu8D5eOzS8m6QjS/qhpOMkF19O0qUkXS28m6+W9LGVvpdDcFlaG9Of9Mt0xW0kPTHp6O0knVvSDcK/v1DS5yeaJ7NoOblayGpxcrWQidiiG5uQK3scGxfkCpLRRpiOLukbkvjv5SW9YYt+LuVSU0JvlMQm1SZ9uCxlLPvSj6NJ+mbPOoRkvV3SmyRdduXAQLD+uTnQnCmM45KS3tYypkdJ+ulEm/XKIazS/Uc0xOnLkp4g6auSTpl56kcl/Ws4oE7VMSdXUyG74X2dXG0I3IIu24ZcoZghTrnTzmUkQUJ+G9yCnKLXLoyHcd1D0oNbBhMTSlynr137gHeg/0acfiPpmJJ+3TKme0n6l46DwppgeJykbzeHmfNKurKkZ0q6ScsA3iPpMRNv2mvCrXZfPyjpCo0F8b8knVDS3zfeAA5mqfyusWodT9KPJ+ygk6sJwd3k1n3kaqxgaZQjzP6/N+nkyNfsWkDgpuSKuIEPB2xz68Cwep+kC4w8D3PdbiihpH/EmbHJucyLwEGSHh5ctzn3t5HmXSDEHw8xkbicnhugP62kLybTwLt/7Ik37XlnfrlPRzd8K4RXPLqZgztkrKZYUbFsnWrioSyRXOE+7Qoh6eMfBpnFF24aqH9jSX8IJPgThfOANbwtvtFukx1D3+CMXOUGNSTOBzaPr/kpzUZ1i8KBDYntgbBxshsquxYQuCm5ulWIEYBgERfQJrZhPVASloG1yxlCzBXjOKqkX7YMyJTUW0Ncy9rHvAv9f0ETq3JdSbjB7twyoL8Kge3897iSfrDiQR9f0nfCpn1ESWwGEKvUdc87i94784rHuuauX69xyd4p6M4LSsKKiJAI9LpoYA8L3oHSva8UmyWTq234A65WXK9fknSaUlAay+KHJP0iIkjEYN4w2gf6bgm5ahMjXFuTqz4S1tVBTKZnDQ3Y3D7XN5ro9zTA2AKQrckxQlwCsQlPbf5xCBnLPd4Y6toCAjclVyhmGD0ZVxCtNumz8hRM5SKaMl7GTVDp6TM9MkJ59yag+CGL6LV3gvmCYOAmwxWTChsawetd87oWFDmMsmmfL3QYVycHmy8EPYprFCGAGr069aa9Ftxq95P9Bm/Mg8KDTW9wEPiHqDNs5oQfkI08pSyRXI3RJw5UdwzAXb8hWM8vABGXLS7ZNzf6AU8Nc8WeZkkjBbc6VNM4m7f1Pn2kqfcGPb07IJhLeQ6KAPPobTcYkREfSJRlrMW3+VQgWZhgCWjdRPaNXIEjZLfL1Ao7R6mfbhNAF3gN2TwQyb4x0/VzrSzTbIFwj9Klk0UlMPrm7RlNAsZNR3nqfDfhsMOmbcT+LMF6RY+IuzIrPe5CsgSn3rTnQ2LZT8aSggv6s6GbzM3Tw9/Z6z4pyRIxyLaeMt6Kx45BZMZGfNs+/a0kXOTgynv9/mZ/P39BJ3n+hRqrIgkhY0svN5qaXGGSQxn8P0kEaSLnCGnDQweLKZANHsZJMGubEBPESY/0Zcywm8g+kSuCtsETybl2IVb4zHPBtCgOLAYEF7+iBXAsDZzAMZEvJSicUyTrLzfmE0t6Xg+hvHTICqId5uZUKPcAdnedMcaQOJwfDXgJcKO1uUYHXFqtCe5ArAGQCchTm2AZwKqVO9meujnB/lNT0uDxLYSZNf7OcFMyEtk05xR03VWTQyQE6prNRhG7qjlQXrhl08YtSgYwm9J/tgyEEzzvLesXd0ttGbrmhrRDB/289gAaa/8JQixmvH8SZsCccBhgPZIwgx7gvyTQpEKmMmv235K4TnQzetPWJHF2xHb1ybZEpu/+m/y+bZ84aIAx5OoDoQM3l/S0gZ2hBMZzGj2MkYc6hWPKrOQKv+Y9g/vlCIHJs+FCsm5fMEqboNeHzIy2Swk6ZsFjlWBCNpF9IleWBYhy5WT8Py2AWZxLW/0WCAp1sQgyhqgQc4C51tyyvAiUcKB0A5vX9xqCff9w0t5kbsa4JiaUZO58v+WmvLSckP69IVjEVKTCOsP6dbigANmgIFMm/I57AOvpQwMZ2MZVvcm4qXd0tmZ+TtFT9BTlAAYo+VwtqJOEeaQffffbpK9DrkGxYhW4ZdiI0mvQKbgDkb9uIZUWDI9e4B64D1nTrE8EKxGWhVSYtzQMYUh/t2lDP+hPeug1tyf3hlARU8amTQ26WBgXQfCsUd67w4f3DrcI8sjm8AlpwQLA78w7LhfDYpu+D7m2ZM31rU2sQxAQDtx9RoIhfStpc53gjk0PaZRbIJzgK6GGIHWuOOiwD8aC0YG1yrrF2xLHI+OdgaS1SVfIyrZEpmT8Q9tu0ydqvqHLSKRindp+xIGB/WaIsDbY1/kv2I1ZBHpWcsWgUGS80AhWJUzdnPbPXnBCxPSN+ZW4AwKrU+GUZumvWBXeMgT1ljb7RK5s0ZNogGUgFU6EnJb473lCUGDc5i6BlJlyN1Ji+GMqf1FzgRELlAVKHcXxqw3nZ9vLjFB2BUaae5nxUcMmFjY11h8b3c8CCWPcFmhs8VymAK1WVu2MQ3vpicVBaefE2nVl15HhZJYcXMNYVWoKJJYDwN+E9da26ZhlC0JvcUpxHwk0xuLDWoS8EPMJ6acAJ+nzWMQekAzqsVGcaM3xsoaIB6GmXCqmB9GnWKUYC/FYubHy7+D19XA/DrhgebNA/tm8KJL7yoBFjXGWrrku17yV56DftdfmkwIJ5gAVS+zChYBhgXx54rrFE8Mccg8MBpbwZXqE/4cgxyUd+H8skl0hNdsQmanmfps+cXBn/7GYQvTqf4SO8s6zdw0R60POAzPkHm1tZiNXVw8LKD4RHisoBRQlDD9l87lBssmzQeVYO0wWP2yuEOZQ8PaJXFnwJS8rcXCpoBiw3iBtp0IWKkQJ4oUYwcWcTVqyBR3b7zwDC0+pS3jo3A1pZy8ZLpa2gEZONxYX0bbWsGhBpizuD2WHRc42JzZEXIGsQ2KDDGOSLiBjtQSFdI0BZnDaEYvQ5tKN+7ptGvQ24zZCDH7g2CZsVKy7tvffCASWHKw6CGuXTQ99xNggy5BphGf8pFHiF5H07m06vuG1rC8IEe9QKma9wqLDxkL/4nirtrHy3mGBZaz2e+wi4Vm4wvm9hoy95nBxcs9NU/Q3HTO44ZmhOGgqWPDBnPcfdzQ6MI63skNYPA+QXrJCIfxYFImHtbnlXtyzzzq3DZHZFIe+6zbtExwBqxWH9diq/rIGJ7gFltg2V2vcH7JucQsSKkDsFoLeHytGcTZyhcUKsmJWKxs0VYdRgqQa82Ic3DM7pBkTGIjEi4tFi7LgxMlpAfeMfWKgb8Jzv+8LuTIlCw64fdr8+UaGuupb4Y4xS4YpDCwHWBD4DbHf7SXjpanlgkjn2TLOci8YG64RDVyIbbEcrFl72c2Fg4vb4gntmcRSoACwNmy7Ljddz7twna2brqrrdrjKJbOYnrF6ZeYmwHqeChYt3HKxq7cmjmzabAZYptoESwduXN4x/psGSadjhazxbzZWyCTr19Z2FxY1x72mZ6E/qZaP1bNNyFCzGNO2r0BABk2P2DywURMPiBsxFX5Lyzu0PXdTIjMl9pv2iesIQ0jd3hxgrcxFl8UdjN8VyrMcGMIKIK1YsfFAjCGzkCteYJg2J6JUiIvC38ymDjG6d88oYfcEsXIyYcPjhAXoBOtyH8z9MH6LKeB2LFyqGqOQ2wI6c4/cF3JlCx5Mc4HdhkWurlCKIeQWRZEr6QCxwaSb+32Mxd51j9iFMFbBVBQhFj5OUHFgO6fOkwbX0xgpv1Njs+T7m/UvZ5WODwpDLIRWOLctNpPfLIZwDkwg5MRCdVkoWHO4LCGBba7DuN+GTS4OlTpZWJi3iVOdA6e5n8kcYAnBvdq3lwyJ2yPmDfcueiTdrzi0Ms9D9MimRGZKPDfpE6SV2ovs4W2xoOYex4BDmzbBsotLGY8Wll57F/g78baxYIGkllbpd0hnIVeclthgUquVDYiAP9yCfEoFFwtftc+JWVCGFrEkTiYO2Px9OIUOicPadXKF354PwWJp4dQLuSIuihgU/o4lBhJC9pj5+3HdYr1CcqZ3XGHECbCY24SNkXkm26m2MOY/BrelnQpxIWEZsPHg0sSixumQ8dNfAh/5kxuzFQ3sigkxDIcoxtq4LPl5rMNLhDmJP8Rsc8F/mSeUMLE21iad17Yx4hJAN9k1cRuytrCk1w5iZ1NlE+APbpB/DJuLxZfEfcRiT/YY/SdBpEuow4S1Dm9Bm7CBsZmXJBcted1M3Tcs0FjiIcDEqpEgwVpqmycLIWBu44N/2kf0ImsSEtL22RwsYFjFh5QX2oTITI3ZJn3iGnBBL7dJnNzRZr2yZ6aJWIRwUJQ3Di+AH1CEnHnF8m2fMxpShLg6uaJuEosvFx8BWJjs2LjIoqBsAoHuOWGwnLAwtWIS75I0YNOyiN4bal30LaRdJ1fgh2ImgwgrE4qaOWAusBCyKEkjtk8UYXmkDcLvbZkWtpBzp20j0n3xAn1zs+nvzCmnn6OE+CjGYxZVrHZs0riArHYaeNAGEko2ZFv6rlnB+upgmau0JPhy03Hu0nXmEiDjinXTtg6ZV/SMFdRM57UND6xguNPaiJVZtOYoIMxYiC8hrgzCaC71nFWZAyen964NlzGSDJDzDLCRs+ZrZ7KueZ1inUd/siaxhBBzSbZiDkPm9So98ZbMORawNmJllsWhunMTIjP1fNjnb4a+V31WK+tvl/WKWGE8CmlGOPPBnNkXDdIEJdPXJClwwOmT6uQKCxMLpq+yNdYOBoE7BRcKQaRtwgC4H5YFq8uUG7Sd6uJaN0aYhizQXSdXfYul9PeUWBEozCnNAuE5WaPcDXuU06tGDCgs7e8Y7VNixf/zORbM09RTYS3bpmgnrG0TLcbo977fg3ebrDmL4UCvxDqBBICXdiTNrAk/1htjM4sVWWmxOx6LFeUt+HckxWJNY11zXyl/Qwa8ZSWn80A9J7J9h+xd4LBEclXaJ9pzaEV3dollWNImtV4RgoIFOj6ccGjGaAAZtntTRZ89iexNy4gu+dpJVXIF6+QERlxVnxw2EKsjdVivbCPrCmZNn4MpMc4GQKliqaFKa584uepD6C+/Xyp8d48AXD6IiWWIjE6sRJiyqcHDgmY9YHrlxEDA5lBFMbwndVsSJInbG1cja5g1j7WPzYvTFFZZe6k5/VBM0MlV3TlKn0YqPHODlYt5wxLGhhavRayXWISGnrDnHVH+6RY/wifHsOQzVjZw3kUE3ZiWs8AdUlL1eqljX1O/mAN0A7rR5gmXcEwILCRmqM4sJTI18Crpk1mtIE72ncZcH3HvEc5CCEEae0WSB4cHywDmHkaksGgRCmOS8gUI0yItVygsrExDFwMDxGzIt39wI6aFLG1iNt2crDzAULeMk6vhr1vuS+E298bq0zuWrI3hvanT0tZj+jTbkHGJY/2AYJKiDcHk/60EQJ1e+lNiBOJEhvjf02QOi5FZM7nqG2vu9031q6+0zRAwV1l6dToP9u3XoTqzhMhs1vPyq0r6RFtKoHCAHSJWyZ62sfUK7wjJIbGRBwsV8Zm4WnNCHDguWgwxVpS4qx/VLFcEkcMYsRJtInHmoPmwMeHDTC3AlMEMDTbFJ47FC8CocTNEnFwNQcnb9CGABY9sWIJel/5pmb6x7NPvkI/a9ZL2CV8faxkC7GHEDQ1dkyVEpqwnm7ce2ieMK8QAojs3kdh6ZclGZNSSrAFZwopFYlHbd4l5HoYYQprwQFBmY4hUI1d9gZE5v35s4SAd9fQdaadDUyXxoRIIz2cvct8iawPPydWQJeVtHAFHwBFwBJaGwFAiU7PfQwPaSVjrsioN6TNGFDICESxXBKhDUMl2Jx42R6zMostndiwzfsjzqpGrIZ2p1YZMOD7bYUATa4GPtk+cXPUh5L87Ao6AI+AILBGBNZOrufA0YhW7Xvl0GyEefbJ35IpPQlDbBXcMhUb5UjnWMOod9YmTqz6E/HdHwBFwBByBJSKwRHK1xD7Z3BFyBJEisSD+N5IMyNTsk70iV9sGbDq56ltO/rsj4Ag4Ao7AEhFYIpFZYp9s7nIJSkMTPPaKXG274J1cbYugX+8IOAKOgCMwBwJLJDJL7NNYc+PkqgBJJ1cFYHlTR8ARcAQcgcUgsEQis8Q+jTVhTq4KkHRyVQCWN3UEHAFHwBFYDAJLJDJL7NNYE+bkqgBJJ1cFYHlTR8ARcAQcgcUgsEQis8Q+jTVhTq4KkHRyVQCWN3UEHAFHwBFYDAJLJDJL7NNYE+bkqgBJJ1cFYHlTR8ARcAQcgcUgsEQis8Q+jTVhTq4KkHRyVQCWN3UEHAFHwBFYDAJLJDJL7NNYE+bkqgBJJ1cFYHlTR8ARcAQcgcUgsEQis8Q+jTVhTq4KkHRyVQCWN3UEHAFHwBFYDAJLJDJL7NNYE+bkqgBJJ1cFYHlTR8ARcAQcgcUgsEQis8Q+jTVhTq4KkHRyVQCWN3UEHAFHwBFYDAJLJDJL7NNYE+bkqgBJJ1cFYHlTR8ARcAQcgcUgsEQis8Q+jTVhTq4KkFwjuTqKpF9K+riksxeM1Zs6Ao6AI+AI7A4Cz5R0Y0l3lPSYhQzLyVXHRPSys4VM4hjdWDO5gmAddQwQ/B6OgCPgCDgCq0Pgw5LOKekgSY9cSO+dXDm5+hMCTq4W8kZ6NxwBR8ARcASKEHByVQTX1o17DU+H6XlE7w227uJybrBmcvVJSWddDpTeE0fAEXAEHIGKCPybpAMlXVLS2yo+t+tRbrlyy9XqLVdOrhaiTbwbjoAj4AjMgICTq7qg9xqe3HL1lwn5jKQzSLqVpCfXnaeNn2YB7U6uNobQL3QEHAFHYPUILJFcvUzS1SXdSdKjV4/wIQfg5KpgQr8r6XhOrgoQ86aOgCPgCDgCS0BgieTqoyGL3clVywr5jaTDSjrcElbPxH1wcjUxwH57R8ARcAQcgUkQcHI1CazZm/5B0u8kHSnXos8tCOE4cpPaefSK/aZWx0MlvU7SARWf+++SriPpPJI+VPG52zyqplvwvZJOJOniTT2Vr23Tab/WEZgQAfTHfZrg3oMlXXDC5/itHYGhCJw8ZKNPuSaXSK6eJummYc94x1CwNmxXmzf8j6QfSjrJmsiVFUNjAz/FhkBvcpmTqzxqKIevhp9v3iwoXpo1y3ElnamJB/iEpB+teSDe90MhcDNJTw3/iv5Y60GAd45D7Rclochd1osAGz/7GjLVmtx3clWbN6ySXKFUriHp85JeW/F9cnLVDfZ1A0vHqjf1KWTqaX9sc+q4XUOwXiLp2lM/zO9fFYGLNVbvc0v6piTe6bXK+yWdV9JtmljQJ651EN7v/0OAMgm/lfSsiTDZd3JVmzesklxNtPZ6b+vkqheinWng5GpnpnJnB+LkamendpKB7Tu5mgTUjps6uSpA3MlVAVgrb+puwZVP4B50392CezDJIw7RydWIYA64lZOrASBZEydXBWB5U0fAEXAEHIHFIODkqu5UOLkqwNvJVQFY3tQRcAQcAUdgMQg4uao7FU6uCvB2clUAljd1BBwBR8ARWAwCTq7qTsVqyRXxBrVTqJ1c9S/OY+9Z6YLTSkJpkd7/5X54vMVCEJhDf8w19Cs2NZQuKumuc3XAnzsIgal1p5MrqeZ7v0pydZCkh8+QJu/kqltHfDCkuE9Vp2WQhqrc6HuSCH5nbVyv8rP9cZshYDWFKBlCQeBdlrj+3C2aIr9P2eXBrnhsNk9Trsl9J1e1ecMqydWjJN3RydUgVVKzQrt9qPKGkp47qHfrb3TfUO37fs1Q+LvL8hG4gaTnhG72fYFi+aPp7yHFE6ntRd22mnUB+3vmLQwB5uftTc2y74cior+cAJp9J1e1ecMqyRXrjoKVKIqfT7AIc7d0y1U32EcLxV2nKoJXcar9UTuOANarl1XWHzsOqQ9vSwTOGa7/yJb3yV2+7+SqNm9YLbmaaP113tbJ1Ryo+zMdAUfAEXAEtkXAydW2CJZd7+SqAC8nVwVgeVNHwBFwBByBxSDg5KruVDi5KsDbyVUBWN7UEXAEHAFHYDEIOLmqOxVOrgrwdnJVAJY3PQQCBBVfQdLdJvwwq0PuCGyDwIslnVESpRtql7nZpt9+7TAEnFwNw2msVk6uCpB0clUAljc9BAKfarJbzxRS4UmJd3EEloRAXLKBkiLoOpfdQsDJVd35dHJVgLeTqwKwvOkhEMAaQImKazsujsBCEaAO0Ekk3Wmh/fNubYeAk6vt8Cu9epXkijTqhzYFK18n6YDSEW/R3slVN3jvbSwzJ5J0cXcrbLHK/NKpEUB/3EfSwZIuOPXD/P6OwAAEsBxS52rKNbnv5Ko2b1gluSJ+BaCIC6AaeC1xcpVHOnYr3Lw5AT+t1qT4cxyBQgT4VNFTwzX79DWBQpi8eUUE7KsBPHKqNbnv5Ko2b1gluWIjv0ZTSPTzlSsOO7nq1jYUdsWtwCcc3lFRMfmjHIESBKiGfe7me5Df9NiiEti87cQIHCjptxMmvOw7uarNG1ZJriZe49nbO7maC3l/riPgCDgCjsA2COw7udoGu02udXJVgJqTqwKwvKkj4Ag4Ao7AYhBwclV3KpxcFeDt5KoALG/qCDgCjoAjsBgEnFzVnQonVwV4O7kqAMubOgKOgCPgCCwGASdXdafCyVUB3k6uCsDypo6AI+AIOAKLQcDJVd2pcHJVgLeTqwKwvKkj4Ag4Ao7AYhBwclV3KpxcFeDt5KoALG/qCDgCjoAjsBgEnFzVnQonVwV4O7kqAMubOgKOgCPgCCwGASdXdafCyVUB3k6uCsDypo6AI+AIOAKLQcDJVd2pcHJVgLeTqwKwvKkj4Ag4Ao7AYhBwclV3KpxcFeDt5KoALG/qCDgCjoAjsBgEnFzVnQonVwV4O7kqAMubOgKOgCPgCCwGASdXdafCyVUB3k6uCsDypo6AI+AIOAKLQcDJVd2pcHJVgLeTqwKwvKkj4Ag4Ao7AYhBwclV3KmYnVzeQ9BxJR5L0m8KxX6yn/ZclfaPwnl3N94lcnVDS6TJgvCP8u+EPxt+UdCxJJw9zaW1GhL/KrXJr6nuSPiPpjJKOJ+k7kr4m6WiSTirp6JLWOuYqwE74kNyc/a+kd0Zr9ddhzn4S1ukJJNm8Tti90W+djje37mjHe/klSaeWdBJfo6PPRe6GbfqzbZ5Mn3xR0o8knUbSsSeap10mV7zrz5R0kw1m+MaS7iPpt5I+ErB/ygb3SS+ZnVy9vRkMSuARku5SOCCuPbukY4Tr2Oz4Y8J9Ua4vaTbFF0v6fuH90+b7RK5YbFcPL/uRAxDflfRZSfcLmxKYHl/ScSKgPi/p2w3uF98S6zkuZ70w7rMGBUcffiHpw2Ed3VfSKySdPvyxPkIuIfJrHPMcOI/9TBTrDzrWoc1rTEpsXtE7rx27QxPe75ySHh50pj3mZZKumTyTdXwZSecP/w4+n/I1OuHMHPLW4M9648/ngr64vKQ3JD14nqTzSTpV+PcpdcmukivW+RsDfqeVBFEdKn/TcIhXBR5h+HAtunzbw/Ks5OrKzan/6ZFS5HTFJlUqKNc2QDip3SxsmB8IgDHgTWWfyJVhZOT3+c0J+PoZ4L4QSNjtJT1uU3AXdB0kCuXIiZ+TZJugFP+h+b0LlwUNaS+68glJZ2ksAF3rEF3RNa9rAgpL6hlChyFdH23pPGsZ68i11zSwHeormzQE658lvVTStTJjQ89iCGC+ppJdJVccfhHegcdIumMBgOj5/xf0vd3jh4mRpuB2h2g6K7l6T1hwbNoA88TGunSbwpHghvpqMOedK3Otka8DGnfAswrvHzffR3IFtmCcw46T8X8GkM4UXGdbQLyISzEvYyp+sqRbZXrECdPIOwcEl3kRwD37s9AFCAfWglRu11gkH9szr/OOYvjT/y5s2pcMlg+sWXdtuZxT+eskjeHmGN47b2kIPKAJr2Df+C9Jh5V0UUnvaoGHPQrr1VcmhG4XydVNg45mfTM+I0htB402aCGz6PjzjkSo4mfMRq7YrO8cTpoHRsCwWb+/YIGxCbIZPkzS3VquIx7m6+Hft7Ws7Bu5MuIKfKfILL47NfFGj2xOZJ9uiPKZC+ZtyU2NUBIPiIUqlV0klEuejyF9u66kFwTLNxbwNnlRsODk5nXIc5bS5kGN1YrxXCK8f8RW4c7+cdLBGpv2UjBZYj/eF1yzrE3W6LPDwS3uK3oTwkWs1ZSyi+QKrvCMcHjAglVqpLl0Mz9vCkYXOMmYMhu5YjFBVp4URmPAsJmh/IYKi/WGjeXqSpnYias1Sufl4Wa4eHAJbCr7Rq5wezEfB0s6cQY04q4wdW9iddx0Hqa8jnGyUSEE9OPyTMUIJcGPOWvplH30ex8aAds4iK/MucC+1SjhEwVX7zZ6YAn4E+bAaRvrKe5QkkluHelT+kg8CZt77t1dwjh2uQ/EAxOjySH1quHvjPfcIY7Txv6PgRRM7brdNXLF/nSP6FBvRhpIDdgT/ztELMRjW892KTLKAAAgAElEQVRW+qxZyBWL6F+SbLTYenUpSW8dgookU5jHlPTTlmsIwCYAOVU8A29/iGb7Rq5woeBKeWVj1oaktom5xwh+R5GsXRgHAcJklLFhtYkRyodIuvvaB7wj/bfDWU5BEjQM0SAj669XPmYsVK8PxIqh4L6+hSTCLC4cjY3N5yoebzXbbDMn7D0cxhAOY+doErAeFbw21rG3hKSrqV23u0au4Ajo4hg30wMPlQRp7ZO/CpZf+AdcAjd7W0hB333afp+FXKEYXpOcsuicAdO1mceDuGBQKFgX0rIBxw2sloX96qBkNgEovmbfyBUmV07HZAfmhIBAhFIEP98W4AVcD2HCvUymiKXxp92yMZccAhYwtJ3tAu4UglCRvrVKthZZW2sWknQgWIQ5ILgG3xb+fsUQY8X/4hX4mMdbzTbVxGIS4/vu0AM2+wc3MT5kXTN/lAFBarlud4lccWggHMWyLG2SzUhDZQCsVxCmnBBv9U9hTk4WPGYYCDhgjyHVydXlQnwVJutUbhkRrra01bS9ZXVRfgHiQ0mGIwaiBbAoHIhVGnBM9sYmaZb7Rq4sESDesI7QzB81XHCv8HfDMi1DYGnvfTizqLEmLIWYWXZkukkzZv4QOG1jO0yyIFl7xGP1jXmMF9fv8RcELhtS3HnXIRMmRw3rlHlDmDfmNc3I6tMHfb/XngtCIdi0WasmrDmCpYntwWKFkHnNAaAtSJpNqS0ze2ljrY3tmM/DLRUf+olbpRzGUYI169HBRfi0xur/t8mDu+ZhUz2zS+SKJA2SNdqsfeiAswXvGFmabWLJLcTBvVDSBZp35b1JJvGmONvzqpMrYiJQCsTopEIhUYDBlNoVO2HXvTkoDwLjsbIAhglpynYySJ9DADyBbFi82CBtk/xjTx2YfSJXFrQNhpyyOG2lYuS2zQSLe4ZAQ5R+jDF/v0jY6PB1Uzj2lOEl4SQy1E8+phKM7/UrSdT1ygXw25iJecHVFAsbFrE8mP+po4TY2HnJwcJcrfxGfSWUA1bcmsL6px4MtZGoSZYTTO6k8XclKkBgrP+UVpmDJJMpd1BwA7AWU8GqSpICFq4LBSUatwEPNrP/TuaMwxlkjGSNw0VY2Zza7zXnDh0JKUrjqHBB4R5EiC2lrhUkjBN+LMz7vQMehErwDlI+xYgWmz+ukhwWU4+1ZM3hnehLomGvIXSBuNyawnriUJ9aViwT2fQH2fF4B9L+seYoakl4QnyIYzzMWZ+eaRvrrpArwooouWCHpnSslGLA9cqhHWzT+EpLfonju+EO6K7DR3ibPv94FHKU6vOuNVWVXBEPgCImPionxLD8a/iRTdhMqm3tfxlOAQD4wYI3hwVKujaDZzO1Pyjpro1un8iVBW1zQsDV0CYoYsovXCNKGrB2uM5uG2FrWFPsjfTkp4YTg7kzUIC8BHMW4jRCiSmZQOE2IT4CvzwbkrllrB0KlXgt1lO8tgiQRyHwO2uMYrkQLbDgZAuRqyX0wSwebVaceCyl7cYovLcJDig/Tv5txIn7WZHBXGJGbAGKn3+jkGlMBl48n/Z3MpWNhGzS702u4V28f4jdia9nc+Bgil5jXWLNR9+mGdT/EcIl2NwR3jvc31bDLh0ra5kYNdb81GMde23aQYhx1l6b6DgsVBz8Y8Ejg05FOJxRBoBSNqkFhvlLLY6QLfQIcVtdeia3rnaFXLFeSVKDYLUJ/IJ3gUSCNL6N9pBeKrmnlQk4FPP1DSoMIMwV1jFImv1hDjiQXm/Ay1uVXMHaYeRsMDnhkxQfCptbVzl73H7UstikBAD1cDjNmvASMiF9xcf2iVxZ0HZuAzZXDBhCRFLfNnFzZMiYoDg5MVOfB8HliFIhbg6x52G1nMt6ZYQS4tNG8tjAOEliPWAzooBoLFhPKPuB1dWE+jZkv5LRRVYl4zRFb2PO1WUa8P5u1ATrGe5NYh/jvqY3s3ZdKcpYg7CY8DkgklS2/QpC6YA4WFnpltRNG7/fkH0+swVhSuWToSSM/TuuNaziuN5I7SZWJs7kYpMiePy5pZ0doT3WXfRXW7FJ6lxhuYO0s954j7Aemxh5iTN7WYNkr0Hw2bSJN7lXdA2nfE7zYFdDStYccXa5OnTWV6wTbIy11ya67Z6ZEAEMAWAOSUYnQJhjIsWaIxYojv2BEHCg4yDRp2dy87QL5ApSBGGyr7LkxmrEGjJ0nlBnzNoS24111grw2r+juzmAmUeCueFP/O7DXbAIozP6pBq54mTJwsgpwLijtsnxb/hO2aBSscC1rkKPucHH/mxiwGDAmMv7ZF/IFRsvZIn/stDslBvjg3URKyMnrDbLSxozAJmKq0gzfyx8K+pqL8Oc5IrsE8gfliU+i5IKv1kWa9vXBNIx8xkGNkMrN5Lez77JaJ8o6Vt//vuhEcA6yqbTVRYDsoH1qi2TMI0NtLgs4pcQ/j/+rBabPxYJgsrnkK5NGzcZB04OO8SP4GqKN202FOJaIV32yR/eOwgn73CKBWPlnhAsl+EIgD/vPgf2tu/lGgnmjmSwEu8TSzoPGBlYgxYHWqpn7N67QK4wvGC1IzGgS3CNc8DgIJxyBPYiDkaxK9YOadSPg9jau89/LYaWOYUD5OK40v5UI1cwPnyaXdk8cecYCBtYm1mPdgQBUp1124KAAD3UZLwv5Mp80mz+bYkH4G+B35CjvuJrvAjEs3GSywnuX4g3rp05BP89pxYkV9/KCCCpuumpJ+0z65L1GX/PztpgLQBXSOsd5hjsDj3TYlhwqxB3lAobHO4sLNW5OLr4GtwNxMG0xaKRxMEmRyLHHII+RC92HVAtpi+2Cuf6CiZYHLGKEOAbC98LxU2Ph4B4NZfhCPSVwMDthMGAUi8cvrBE5QRPDmscI0CbdOmZtP3ayRWuOPaboe+f1a+C5GCksZqFWK7wQODqNkG3UzOLdpRvSgUL1hOC23DoSqhCrmDynKg4BZUKpl8GbIUd7XojX0OJUdtzscpgtYK1DpF9IVdGInLuMbCyeKs291iKJVYFLFX8t03MXUbwLRlfc0gc75HbvMyNh6UEpRh/JDztM7EtbFqp65B2jBdXBVawIfjNgcdanml6ADc1lZbblCLzhvR9/YGSBlhx2lyHXM/BkA0xjbWrgRXxI7gnsTzlYsvoB5sw7t6+TZu2xAXhuucaDlKx4H5BL7YR1hrjXeszCHOAxJBQ9cCM14Wxse+wjnA5dbnmiZkj7u3xGUC69Ex6ydrJlVmgN1kbzIW5u8GUkjsWq80BAjc/X3nJfdsR6xchSCXfzq1CrogDaPvu1VCQ7NM2cYBieu0mJAsFRBzN0O8Z7jq5stILKbZGsrrwt5TW9FpSwZk/CHKbEHRLtX6sAl2Za0PXSmk7s8C1XQfJiklX2iYXj0YAMJsVZSa6YpDMpTUnqSzFawnth6zDvnltGwexFFhp2hQscUeENXC6rX0AyI0ldwiwbOyuTZvDDu4P1mibEMjLyb/rHktYC0vqQ5v+zGW9k4GN9QorVmo4sDHZmmN/aivvMlTP2P3WTK4sxnrT+U6TlMzCSywhsW2EgeSIFfFdWLOwnJWU2alCrjYFZOrrcAPhThj6JfJdJ1dT4A2xJnizLUCcTEMsYKSVMxcQGf4MnY8p+jvGPfHls1Gnmx/jYjMzN6oRt66svTH64/foR4B4JMpn8CUCkjFSsQSOTQ5x/U+v24KDLlYrK11DsH8croGHgRIsuzDWusiO+7S+NZfTM7lerJlcjYvsn+/GvoOrnQQDiFBO7NNFWK1xJw6VvSVXKBaybgjMHrqZO7kauqz+0g5TLlin5ApiRaD3zcOmRgAiNZMwz5Ys4PIeTX8FcYJknqbkikBiEifs38l0InPLydX0c9L3BOKxCP7OEQrbyNZOOKhbRjwWsWi4GvlDLCR1/0yM9K99rH1zvvTfbc3lrPo5PePkatyZ5f3ArTgkGS9+8t6SK9IzCSgu2dicXJUvWr73SLxdSq4sZiu9Y+kCLu/R9FcQ80IcSzoWimwSa8Gag0RimiZglY2Noo8u8yFgNc5yhMLq762ZcECsiD/jYBNL+vkwy9Ze81jnW0njPdnWXE4n5vSMk6vx5oA74SJHd5fuTXtLrgCN2AT82QQfDhEnV0NQOmQbMl3I1mr75Ejb3Up82uW9qXMFxSWxCLRZRNnEqWtDaRKyVnCbErDqMi8CEA+ygXJFbJlP5iqueTNvj8ufjkUK63DbeiMw2oSx8t7OWdC3fHS7dwWJL8xZLia4S8+0oeFuwc3WCDgT2jI0NtuestfkqhRqJ1eliHl7R8ARcAQcgSUg4OSq7iw4uSrA28lVAVje1BFwBBwBR2AxCIxJrnAvkwm5bTap1avcRRe0k6uCpe/kqgAsb+oIOAKOgCOwGATGJFeULCEjemgyWA4EJ1cdy+O7TUGuIyff6lvMahq5I9uSK1Kc2xbjkOKqm54S+FQHH7jmW0jUVnFxBBwBR8AR2D8EtiVXxCjb55P4Ox9QZj/jD3tYaUwSM+DkysnVnxDYllxxj/hzKLminW1wExTeVRE8N0VOrvZPifqIHQFHwBFIEdiWXFH0lLIQVJanCO2jm88x8akfAu9fJOk6G0Du5MrJ1WjkaoP1t9UlTq62gs8vdgQcAUdgJxDYllwBAp+M4YsbFN19afN5L+oT8lmmri9RdIHn5MrJlZOrnVAvPghHwBFwBPYTgTHIFZYqvr3Jp3eOLem9kqiL5uTq0GvKA9oL3rOx3YIFj/6TS9DdgiWIeVtHwBFwBBwBQ2AbckUdOL7Dd7rwMW++rMHXTfjKBJ+Hcbegk6ut3rRtyRVBfxQq3EQ8oH0T1PwaR8ARcAQcARDYhlxxPUHsfOybzyfxd77L+3JJD5J0JA9oP9Qic8tVwXu3LbkqeNRoTT3majQo/UaOgCPgCKwWgW3JVTxwkrFKPh2XA81jrjqWk5diWPa75uRq2fPjvXMEHAFHoAYCY5Iriojy2Tivc5WfudktV3zDim9ZbfsdK+6BX5iPkkIoKF3Ad+o2iVPKweWWqxoqwJ/hCDgCjoAjMDYCY5Krsfq2reXqdpKuHoLsvz5Wp0a6z6zk6mQR+blQyDwoHdexGn/vg0PdDYtLOrokAu5IG+VDq9uW6Lc+7Qu5aqu/1fdFcAqUUgcllh+HjJLSOZ2jPTEEVoOMcfBhZYI3v9DTmfg6a7qLn3KYY076nsk7TtwH8ntJhxvoqiB1HJ0Ryxgujr7+jvl727qz+69tLGPisqR7oU+Yp5zU1hO7SK5sryKW+bY9k3/ChiccnGmT7m9Y5O6TtH2NpCsXLLBZydWTAgE6u6RXS7pKQcdper2mzsbzJX0vkCnuEcsjQ5oo901/K3zUn5rvC7kybFi4WAAhwSzM73SAxjwcTdKVQpG5x20C8AKuQRlCCq8m6bqSXtjRp3tIYu1SRI/xX38B/d/HLlwmKNYrSnpyyGDK4UD6+A+jH88n6QMrBu1TwVrP2mMNuiwTASMB52p05Edm6uKukSsMJ38fLFdAehZJvA99EpPeLqMBeh3356aHldnIFcXHIDyPlfTEgMZNJT2jD5nwuw38PZIunLmG7LyvSPrwCG7HfSNXuFl5GbEGXELS+SW9P4PzNSU9JvxGBd8zNNV6PzdwHpfW7EuSXinpIEmQp9TCYf1lnJ+V9LpAwg5o3NvPWtpg9qQ/hBawYUHo39iQpct1jPuDgYhBqD7dFEI884oxOlVD6FmvyEklfXPFY9nlrt+4OaCyRt8n6QIzDnTXyBVWKPYeam0hfQcrg/6cgRPw/9Tr+lFmTh7VVKE/ZmNgQLdvIrORK6xKKAM2Zdjm6UOK5wUHjOIkkr4hCR8rVpUuAXgWNH7ZVwy4d1eTfbJcoRCOGtxjNwtWmbaTMeTri8H9ysb1ZUmn3hLnuS5nDT4vEHzMzMQD4HpqEyxabGyQ/NM2HzE9xcjxfXNhsMbn8hHZSwU9gl7g4NYmmPRf1fxg30N7eqODWNtrFayrpMLPvWmvFb9a/Yb047Jis75zrYe2PGeXyBXFTPEsYK1GZ/P/v20OxmcLh94umGP3YM5yjTUcQw98ZNO47VnIFUHnbw2uJkC4Syipz9+HkCCLNxjis2ZB33EL0148SftErp4q6YHhe1EUi8uZRjktYCHkC+lsXGt2jxEcCaH8aLCAkBDRlmhxk4AN6xgX07caIgbhd6mPABYbLIjMG8T+lM1azZn6cc3wG3V6sMTeUNJz63d5tCda2MOmbovROuI36kQAiz/xv0P2qymh3CVyhY6+a+O1epuki4SPSIMdNbeoxdUn5qbNhQxxX3TDNt6IWcgVTJ5NydI4CUD/eDj9Y12CYOXEAs3eIOnyfQiGqrI3CJmD22Yk7hO5+mTwYePXpvpuG2niN07/xFo9RNLdVh5v9frwnaxfh0D2NtKEhYoUZFxPnIBeEKwH1xiwFr3J+AjwsVhiL7FKvbs5tJEYg+XK3GX2ROaWEALcMxbUimv32+N3qdodcW2epyGLl25O2G+p9lR/UAkCJMawtyFHaDb+35VcPHLbXSFXuOmwVF0ywoekNVyEWK7BnLjZLrGDWFso0h0aK+MxJN1/S/yrkysCgDk5Hjnp+L0k/Uv4N0xxtGkTMrnITLtFlCnUhYGdGh4aNs5t8NoXcoU1ACvUOSQRgPmhEG/Fad/k8MGte/ewYbFxMW9rDRA+XhMITc02LBuHbaydPwnWENYpZMvktcEdfetgrcP6QfYZ68ulPgIc1IirxEKNq5YAV4gvsVcmHK74dAdzCwnmg7NdsZr1R1H+RN4/3CAIH9H9Vfkt/IoKCBC7+fDGEEDIBNarOWVXyBWHCixU7FEml23wxeCCQI6I5e4SDiOQs1R344HAG4Mbd1N3oD23Ormi42SdpcXHsAKwiZ84BFLfsgWZoVH+8aVYyMgQ4oSLBWYb2RdyxamAxcqmRKkLAv4gHieIwCPTk2BArFdYHn8afusr2bAN/lNey/qAsJt1k9MmJyBqp+F2QtiY2cyxeCCs4+MvwNw/JS5LvzfuAU6fH2ssqI8IMS0QX9anCS4AdMc7m7W6qSvNynTgKl6CmC5k3ByCXJaJABs+unSseKtt1uEukCtiJPnDIT4VEuTIVieB7dw9y8GwIJnuNlFbiPCbw59tV1RVcsVGhTI4YqbX9wyxLJzIsHDhfomFdGP8oOlGnwMB9+LLwo9pmiYTxIZKABynXF6CvlTmfSFXBAiSgmrlKyBXkCwjTpALMq1wv/ygCagl+A8MiaMjsDgWaoXcvomr+0W4BpzjMg34zc3qg0uYTD2sDLXl0cFaZaSfQGEChq/QuF5wKSG4Cdm4OTGxbljLPw/kMu7vRcN6IoMNCwNjxqry+dCITEyCsBFOR8SrbVvpuAQvTnW4cvuyYFBAfxxQ2sAOTFiev1/SkS3bUiyY52G5QVhnJMg8LLio+TfqYIE3rjPE4q0IKbCTrnUDkoZOwDLOHLMWbe7BirWK7kll23CDTWAwksi6vdPAG9iapnnbu7aJThz46MHNStYcB2c+HNwl6DJK9cwVSM76PE7QJaynPrHDLElCiO1NtlYPDIHcbffpW4e7QK5IUIMQte3VsfXqRj37CB4XYonjuFoIG9elawrvBDoaIQued4f/N32em9Oq5ApWyCab20hIe2RRsRg5hRLoHosB8olgVehbqEwA8Rjvaoq5seGZQArY9K0ukcVx9bm09oFcQQawyGCVMuEkQPoqmZlkaOJWYdOxshmGH/ND7FUsEDQrvGYpyfGGQJFOsu0Qu88cZQ3IuKL0glkmWKuY9DEPkzmIJZXTEBswYmuxLUYQssjLBwHlpMlGjYXFlB9BkpArApGtpEitMcfW365A6E3a1Q7YhchDeIw4kTlEoT/WJ7hSEoQDmh0KYldamoLdphNwLzAmrJjoC9YC7jf+oDj5L+uXBIfawnriAMoBILdpY7HD+oq+JGOatuDV9q5tqhPHHPcma65rDceFIGuvTXCJCytDmgg1SMU+T2ZrFOs4Gdh4WTgUcHCxYHjWIQSZAx+HuvgPh7e+2oJrJ1ccfIiDsv2ibe3x7oNhLhnJruFe7OeQX0JCEDD/5xbS9LNwT1yJbfo89w5UI1d/E0768abd1inzUWMtQXnEJe3tZcHn2mYWjO9ngcd8rZtsAoJdTQhqZaMn2wvlay91X/bQPpArNigsEGBvghWLzcrIAdmXV41+53SF9SotkEeFc5g+J2IC3xHch5A3foOoUO7AiIVZdLA24KKrKZZJZs/EQgWpguRjCSEImlgsE8tYxaRsddrsN4gTL7dZhgwf6hIRH0T8BUQNhUqmJSdr1hYHgRrC+mfNM8bUehM/n3YoMgJFc4HfZOlBaBBINAq/ltghzf6LZRxCi8WQtQgBYTN6QOiQvecEu6flGvp0AgQmXvM8i/eC92Xb2IxSvIw0cl1u04ZwQg7ZiBGrZm/Z2IaFvWt94y/t46btS9Yc705fnTKrkF57bTJ+SDd6D1IU69MYG6wnxHRCEhF7N9m/ENvzbG/COME7Z4JeJowjXps57NdOrt4UrEYQzpxQ8xJjCgLJ4v1vE/gDB2oETkJb3qW22Fn0OfrfykSl+jzXl2rkipMfG1hfBD6nSxg+jD49ldjJNM3i4iWDvMWVb3EfYpkiLZPgt1hYsMQpsLmbG4O+YV7HqpKTfSBXbES4jFDMJhTSJPAPkoQ1kQWMOxAhAJDMCyyOqaJjXlAukBReDARlh0uNhYxrhpM05MXcLyxklBGn7FqCVZNxx8VozcTMy8kaoX9xlX9zlRpBj/uKgmTDNYVpCpI1hyvRTl5YPYxg9lWDr4XFmp5Dsgp6xdYWBykUGnPDIY1DAGvNxNyGuIqIJyzRCZCRON4KfdE29zXwszXD+uGQ0ibgwoZASRWk7V1jDJBG3rVNdWKN8a71GVZ/KXdYJHGIgxZzg15AmAc8BHYwMxLM3gQZQDcTfmGCm5qD2pDv6q2ZXBFLhV7Fq9Un6GqSWkg+4ro2IX7YDoxYBnGzk2ncJjwXsTlJ9XmuP1XIFWY3LERDgKGj9w4kDCXJKY2TPRIX/zLFBktlU+QzLShZLB5YEvCb8v9skn1iVoq+lOZ9IFdYMsDPrBFghzsEkzMkFYUNWTIxf/TQgoyQMMo8tJXbYJGzYdau28NGxMaMW9CEGD3cKSg9yF7s+rHfhlb4hlBCqLCWWFYXlg8IFbEgrHdebpfhCJCkwiGLhALM9ibEQYA1ugPSYKdYfjfrDLqh6/RL2y6dgHLl+ZC1OcQ+dpuzdrIhQ5ooipv7ZFXfuzZUJ84x/rU809ZiLrMdnQo5Nrd227iovUeMZNvexMEU6/fQTOU1kytcchxuqL3YJ3HdKyx7uArbBIsh8d8YYChkPvQTeZBmLF+4fbuydKuQKybffP19wKS/x8Gp/IYb5vEhUJXaFpQHsBIODJR4FpRnl0kwfgaEDYsXp4u+oOJdJlcQYCw4uDrSE7mlr1PTCRN0LHY6g8SaBSE3x+CLi4nCbVi7UmFxUwemVs0oNmZOfbj++GMfAaZfmIqxzkGgSNmNNylTeEMygOyUk8Z8QK5QmCRxoDTIunQZhgBKDVKPG9UyN+1K1iiktY2gQ+z5ekDfp2L6dAJuRaziuc9BDRvF5q1sHG1jtPXWVy+Qd43NpW3d9Y1/857vz5VGXhlx+u4Tv4olCl0KQc/FSpmnJnfYZP31hcfEiK+VXBkOm6weAuBzFineY0I1SkIyLEZ2SLHzyckVzDCuE7QJQFgVfhNdyKmKEz/A4P7DTAp5wy1F8DAuAdu8iQXq2vTJJiRgG993n+wqucJy00YsLcgSSwCnMAuO7frae+6UhtWLuAeUeZoFCu70AbIx5PNHffM05PfcGGJFiNskjsOzqr7p/XNfS4dEYkHABN2WZWb3we2IdcsJVv/MYUmMXX1cEQevso4hroZlbm1zXa5sSJdOYN1g2eUZNaXrnWvrR5f1Fx2JPs2ttxKdWBODNTzLYjGH9jW3BvnSACUBOLy26WbLGuzLENwFckUJFaxRm0rOI2Vz1ZfIZs8lJhiyhidnyKf0JidXmwLSdx3xPCgcTqG/DzE/VAhHqVhsBEoYq1QciBzfF1KGO5EYBu4HabM4mbbn7yq56sN629/tNA3GWIPY8GKcsWZxErCA7vT3bZ8/x/UW8GxxaIwJJUEtNzIPiQewVF57ydsqi8/R931+Zp9OwAqPtbNkU5saTyyw/MFVieDGbstM4zez7Nmmnr5rfeOfeiy7en+C0G2eqNSOdNVM+2VwBxKqQHwgZCvWmbi7qb9XkvizVsvVVGsiTYjpew4ZmWQTEuvItcxf1xyully1AcEmRbYSplaCAlGEuAjJGkqFtEsUjJ3ecImR2k2l+Jw4uepbfof+HdM3p6/4hBZn5kGsiJmLA+jTzL3yp857BYVwcSdSWsSEtUncFuuSv+PStrVnn2Los3DNO6rdf3qqEzi8/V2IibPRkymENX5J5GrozBBiwaYdW0Lid23I+Ic+y9ttjgDxPxApdATCfPFZF8u45t9waeWsWrknO7nafE4gVvAJ4xLocEI6LOOw7c47Ra6sZIANlNgs4mNSMb9p+u99tYacXJUtTrPeEMMVi2VrEXuASzaV2gHtZaPqb52uQ67AQopZGWETw3JFVgvWOgJW/RM6/bhO2WKoTqCUSFyzbMo+jXnv3PjsXRs6/jH75Pc6NAJxba74VyxXVniYfyfUhizuvjjh+B5OrjZbcW36nDv1fY1kp8gVcVMUd0RwBxK/E8dqGbSYwtsEt02Xmc/JVdni5ORvn2uwK+2knFMitOubh7Je1G9tCi+N0TKzPsHyBGnyhw+MckL1D+/Wn6f4iUN1AoqWmMGSTW3ekf356bn+mmtj6PiXMJZd7kPOqpjOH5YTYv/MujUEEydXQ1A6dJvcu9OnA3aKXAELmznumCGfGiiF2slVKWLe3hFwBJGR9iAAABvCSURBVBwBR2AJCDi5qjsLO0eupoTPydWU6Pq9HQFHwBFwBKZCwMnVVMi239fJVQHeTq4KwPKmjoAj4Ag4AotBwMlV3alwclWAt5OrArC8qSPgCDgCjsBiEHByVXcqnFwV4O3kqgAsb+oIOAKOgCOwGAScXNWdCidXBXg7uSoAy5s6Ao6AI+AILAYBJ1d1p8LJVQHeTq4KwPKmjoAj4Ag4AotBwMlV3alwclWAt5OrArC8qSPgCDgCjsBiEHByVXcqnFwV4O3kqgAsb+oIOAKOgCOwGAScXNWdCidXBXg7uSoAy5s6Ao6AI+AILAYBJ1d1p8LJVQHeTq4KwPKmjoAj4Ag4AotBwMlV3alwclWAt5OrArC8qSPgCDgCjsBiEHByVXcqnFwV4O3kqgAsb+oIOAKOgCOwGAScXNWdCidXBXg7uSoAy5s6Ao6AI+AILAYBJ1d1p8LJVQHeTq4KwPKmjoAj4Ag4AotBwMlV3alwclWAt5OrArC8qSPgCDgCjsBiEHByVXcqnFwV4O3kqgAsb+oIOAKOgCOwGAScXNWdCidXBXg7uSoAy5s6Ao6AI+AILAYBJ1d1p8LJVQHeTq4KwPKmjoAj4Ag4AotBwMlV3alYJbk6uaTLS/qypDdVxMvJVUWw/VGOgCPgCDgCoyGw7+SqNm9YJbl6pqQbN3++JukUoy29/hs5uerHyFs4Ao6AI+AILA+BfSdXtXnDKskVxOoRkl4t6YCKa9jJVUWw/VGOgCPgCDgCoyGw7+SqNm9YJbkabbUV3sjJVSFg3twRcAQcAUdgEQjsO7mqPQlOrgoQd3JVAJY3dQQcAUfAEVgMAk6u6k6Fk6sCvJ1cdYOF2fVMku5agKk3dQRqI0Bg630kvVPSs2o/3J/nCGQQeJikT0+4Jp1c1V16Tq4K8HZylQfrhJIODj/fQtJTCnD1po5ATQQOkvTw8MATSfp2zYf7sxyBFgQOlAT5QaZak06u6i49J1cFeDu56gaLbIyLSbpl5RIZBVM4uOl9g3Xjfs0V/N1ldxC4jKQnN2v1HZUTYsZG0N63W0t6w9g39/tVReCokl4j6fuSrj3Rk51cTQRs5rZOrgrwdnJVANbKm749EEU24IuvfCze/d1E4H/DsPwAsJvzO/aonFyNjWj3/VZLrl4s6WmS3lwRLydXFcGe+VFYqy4a4nLccjXzZPjjWxF4gqSjSHp9E+v4EsfIEehBwMmVVJM3rJJc2SLxIqL9+gTl+0tJn5R01v7m3sIRcAQcAUdgBxHYd3JVmzesklxdOgT/Pbt5AWpaFdxytYMax4fkCDgCjsAeILDv5Ko2b1gluZrrPXByNRfy/lxHwBFwBByBbRDYd3K1DXabXOvkqgA1J1cFYO1RUzIkCXx3cQSWisCxJf1oqZ3zflVBwMlVFZj/7yFOrgrwdnLVDRZF8I6z8vT2guXwp6bPkXSDMGYvSFmK3jztryXp8pJ+sCcFbz8m6WzhI/fEqbosEwFKa0y5Jp1c1Z13J1cFeDu5yoOF9YbyBcg+pYZ/KlSlf76k6xesJW86HwJWw4weUGZj162OVrLBi/vOt+b6nlxjTTq56puFcX93clWAp5OrbrCsqCFKvGaJjIIpnKQpirFmYsUkg9ijm1pg69qLiA6dsqM12cLXmPCzKkP74e26EeBw6kVEd2eVbE2ufiPpsJIOtzuYZEfyXUnHk3SrUOF5DUP2UgxrmCXvoyPgCDgC0yKwRMvVRySdQ9KdJD162uFXv/sfJP1O0pFyTz5MT5fM5NzXbsyR8eFVYia+XPkzK06uxpxFv5cj4Ag4Ao5ALQSWSK4+KunslchVbd7Qy436SFPvDSZYObifbtz8qV1E9DOSzuCWqwlm1G/pCDgCjoAjMCUCSyRXL5N09UrkqjZv6OVGSyRXEKtHNObEV1fOTLPvza0pCNbdglOqq+H3Zs3ap0o8Y2s4bt6yHgKsUVwZz633SH9SRQSWSK4skL/GnlqbN6ySXFVcj4d4lJOruZBf/3O/2gQUY5amXMMB6x+Oj2DHEGBtskYR1qeXFdmxCQ5fNTlQ0iUlvW0hw6tJrmoP2clVAeJrJld8X/CoBWP1puMigEn6CpLu5hvXuMD63UZD4MMh+PaKIeRitBv7jRaBAPN7TkkHSXrkInr05yzr++xoSRQnVwWLzMlVN1iYXc+0J4UZC5aNN10YAlhpUOjvdKK7sJnZ7+5QhPnTE65JJ1d115eTqwK810yuPh6yMgqGW9T0hJIODld4scIi6LxxZQQ4uT88PPNEkr5d+fn+OEcgRQB3HTFRyFRr0gK67yjpMQuZArdcdUxELztbyCSO0Y01kivGzRxRMJGgwSnFiojesnKJjCnH5PfePQQuE+rU7UsR0d2bwd0bESEbr5m4iOgSicwS+zTW6urlRkvMFhxr8KX3cXJVipi3dwQcAUfAEVgCAkskMkvs01hz5eSqAEknVwVgeVNHwBFwBByBxSCwRCKzxD6NNWFOrgqQdHJVAJY3dQQcAUfAEVgMAkskMkvs01gT5uSqAEknVwVgeVNHwBFwBByBxSCwRCKzxD6NNWFOrgqQdHJVAJY3dQQcAUfAEVgMAkskMkvs01gT5uSqAEknVwVgeVNHwBFwBByBxSCwRCKzxD6NNWFOrgqQdHJVAJY3dQQcAUfAEVgMAkskMhTzpV81vi1YeyKcXBUg7uSqACxv6gg4Ao6AI7AYBJZIrpbYp7EmzMlVAZJOrgrA8qaOgCPgCDgCi0FgiURmiX0aa8JmJ1cXCyOhWvLSxcnV0mfI++cIOAKOgCPQhsASicy2fTqZpFOEL5AsbdZnJ1dflHS4ANCm4FxC0vUkXVLSjyQdX9IvJL1R0r2ar4D/fNMbJ9c5uRoJSL+NI+AIOAKOQFUEtiUyU3R22z49RdLNJV1H0osGdJDn5Yhn/O/XknSmloa569vuOSu5+gdJzwu9+kdJDx0ATtzkaIE83U3SP0l6hqTvhAa3k/RYSe+VdFNJny+8d1tzJ1cjgOi3cAQcAUfAEaiOwLZEZooOb9On00t6rqRzSfqEpL/t6eAZJV1bEtauG4e2j5L0s+bvKWnCo8YfAu4/LemlwTpW4mGblVy9L3Qc8vMDSRcqIEHHkfQWSWcL10GiUgEcCBHs9hYjrAwnVyOA6LdwBBwBR8ARqI7ANkRmqs5u06fHB1L1b6FzN2mI0zMHdNR4AU27vp18R0l32MKrNhu5uqWkv5eExeoDARBA4t+HyKskXVkS7LXLKvWlht2eKrDbjwy5cUcbJ1dbAuiXOwKOgCPgCMyCwDZEZqoOb9qnc0t6vqTTBgMNVqkPS+Lf+wQ+AC9AThP9Pb6O+727CSk6SNKz+m6Y+X0WcnVkSR+UhOsOM9sLGoJ0XUm/lXT2xnT3mZ7B/Kukuwdi1udKfLmkq0m6laQnbwiSXebkaksA/XJHwBFwBByBWRDYlMhM2dlN+wTh+aSkR0i6k6RHhk7eSNJzejp8xIY//Dq0uXTwgKWXEK70O0kHbDH4WcjVXSRdIRQOo+8UEPuPMAjA4vecXD/4WWGesM4+eVi4H5OxDVA8Z1/IFeOM5fvBV92HNZZB/Ncmv5F02b6LFvL7iyUdN/SFlwJzMUkS3+7p3xMaf/yZJf0xane/hWavLATq0bpxxXByvVJ0x3c2f+8LOj15i/tgyHWjdXyEG6XvaHzLtY1lBDgWeYujN8YCPCw5qa0nNiUyU4K7SZ/gCy8JsVO/lPRXwT14yqB3+b1P0OsnkETcN8adWIjHItaK+3yt70Ydv1cnV2xgWK0gOnFw2MsagK4esv2wXn0902lzBz6uaXv7AQN/feN2vFwwIULMtpF9IVdkSkCoGC+xcMS38eeHHeCxGM8RXLWx0igJANxmbra91kqCMA5I4WWak9E1JGH5zAlteMlJrHhDlJCxljFvi9nc12O6t4we4iMuIIkA1Tv3dIw5u2ZoQ4Arax1Z07zZen2QpPM3h4H4nWND2GZTmHted+X5zBH7nelSxkXs7xdmWm+bEJmp52KTPhFcTgD7/aPO3VPSA8P/9+ltmhHvfb5g9Xp0MsivhvdpU3eg3a46uWLzOm9DsC6fDIj/f134NxRF2+nzeI1777uhDRkCQ2KoKPVw6kDEIGTbyL6QKzA6ZpMo8FZJf5B0noZknDWYYdvwY5Mjo+JTwYrDJsfiXaOwpogBxI2M25qgyZzw8vD7bcOGzsbuUh8BcKcEC8oW4gRhygnuAw5uXHOwpBPX7+5oT6TkjGVHYz3lHXRZHgKEpXBI+6wkdOVcsgmRmbqvpX3C4/XaYHUyLkAfeRfQ3bzP/B5bs9vG8O+hfANhRcR9m1Bx4K8lXWWEgVclV0eV9HFJN8ucEl/R/H5VSV8OWYDUqoqFAHYsV/w71oI+OUMUv/V3keuR0wTunCdmbpA7we4TuWIeSG0FQxIPIL9YZ9rkTeE3NixqimEOX6NgJoZYQZh46dIXLx4TBwDcSyRUQD7XTCjXOFdxnz8WLALMHX84kbYJ7/33GkvCbcL7/5pgaV3r+IkX4d37XHhP1zqOXe+3EQgy2chom0tKiUyNfpb26YVNXatvhUDztH/3jqxZfd8qtLjtV0dEyvgCRUljyy985SQZztJl7a5KrsgEhOTgdmqTSzWb1JvDD20B6LcOShHyhTWqT6h99YDQCGaLYkUo34BCbpOuSdknckXsG75oTKz36LD8MU/EVWERYKHxZ4jPu2/u5vgd/zsu6fcHCwinTcafCusHkn9RSZiQka6U3jnGsi/PPIaknwT8seIcPpw828ZPnCakmOQZQgVyFvK1YGcb07Ojuj1r6fs+9dP2DfY/Kxswx/hLiUyNPpb0CW/Vh0L2/1daOofFCeste/3TgxEnNwbm4kmh0gAHZATLF+WdSJaLheB29oZUcvuDtatKrqhFBeHpYntmvfrPZqAXTEZjE9H2WxuIHw2bJQQLVmuCckUpc+IzYcOEEeNWyMk+kSvmCvypfkudsLYYNyw9lMGAZGDZwufdl5BQ44Xd9Bm8RE8LQfm8aLnCdAQMcwolKJKvAPDCY71yqY8A6w7yf+HGCmXvO0oWN2EsxLo8pFnLJwrzhnUVC5eVganf8+2fiNUK69UYmdDb98bv0IYAmfG/Cj8QH9iXCT8liiVEZsp+xPcu6dNjQrgKGYE5Id6SPYjKA+zpuGLbBIOAeWI4GGPwIamp7ZCMp+yGwWNGPC6CoYcsRUILclKNXOF3PjCcGLsmDveKFQQlwB2yZUIUP5vaEDM4AasQpTY3AXFfnFpNjBH3WR/2hVyx8ZDmSiVbLI3EXrEQ0zg5PjdAbBUBgcTL8TsZdviz1yZ8ggkfPhvzscLm/D+Na/AoyUB4oXCXshax1vH/uJdxNbnUR4CDE3GBvNPEWhCT0UaaLAPUrOOQL+Z6zYKljlM67oz4oLjmMe1a39nDSNYa6m2ZcvwlRGbKfsT3HtqnkzYllf4reEX4b06OFDxUhA2R7IExp02wVhnx4u+8P7lAePb92BvDXsjXX3JhMva8auSKrD38nBTm6hM7kaUbOkHVABvH9eDGoZgYCoYgNhQs3xrEl0qKJn/s5JB7Ls+j/AOEokv2hVzB6tmkCOgmvRXFQIbL6SJwUBqweWKzEFwzWANpY9kwffO8pN/N8sZ6Qv67+ZzS34QASTudsBlj0SILCJ88p1DW3dDKwEsa7670hXfSMuXsO2MpwUcXYGG9ayBhKHR0xrbZw3NiaLoQ9whFEV2WicBTg3tqCettKJGpieTQPnGI4lDbF6hO3y1zkMMy+rytnA4kjMMzQh94n9pCQFIssD5iuImNMzm8qpArNmDKyONOGSqcRBEsXq+MLrLSCmQE4ZJ5TwhIY9AQK8oB8N8jhA85d7Fcbguz/WZT4p64hT7ZF3L18ECo8EkjLJLfh3gWw4iTP1YtYtdIBcdVC/HAChgLmGHJgnCllkGr1UMAOfPH5jiX1YtMs2OHzD/6b3ONu4k1hqAgseJhPcWqZ0GPKaEkEB5Cj/s7N2Z78fg2FhZdK2rXtwbH+J1THckhjKdLzhkSR/pKFFhZgL52Y/Q9vQfmf0g9itIUNR9rt7RsSDPkCsskgs6ghAaf3CIzyOSEjcUSt4MlucTzxlxRigSd0/Z7V82pKcbMPS3+dOimTTA/bg/GaDFq1jfGZ3NHLArzybq07O2pxtB237HXHPf7aaYKd41xcTDlgEp4BSEHfcLG3bXOIABn6dEtuWcMJTJ9fRzz9yF9Qi8T21qSjY0OOGzwLlBlvU2Iwea9oMQQWZwWk901PuKsiMkaYkCoQq5w8+Hu20TS+CpSLVGWlApAAUDYUG4wVJ7DhkcWUJxemXsu/nCyF4nHGLIx7Au5AhM2JbPYmIKwWBZqCuEuw+yKWIVcYlrSYEBbwOkcUOeMOiLMHyZZSBWEmo0fyxn1tWoK1kv6Y+SOgEgsUlbxF1cT/nxL84cQEZzaFsDPYaAtlZeNDexQKGDK+jXsLBaoxpjtpU8PLvGzsfii0FA+Xa7e+FMSvIOsnVpCnBuWAftg6w1CdWZIE+SJMbD+OO1akWI2Wtze6WeziC80Eh33HyKCS4DYJtZ3KnMlcNiXJ1KSGPePdWYlbTh0tpWusfExb/ydwxGZUbyLZHcP+ZzIWPO9yZrrWpvxN+Rw9TO+mgJhNx1KAhbvfJvEYSp361lnppfS+5hu6RrfECJTEx+eNaRPltm3Sd+oss7cU2w0Fd4H3gt0OXqkTzhocwgfmrA1ObnCRXeRvl4nv1t8hP3zuyLlyL9Rvp5NCZbPqQAFyotJNhAnyzgondNaru6NZQz0xVpZP/aBXFGDjDg3NnsTMiguGYK22ZwgITFZBmMCAolnwbJjwtxATsDtG8FCiLJmQ4BcsaHx4hAsz5yZMuwqgVC4lAY3Z1ycCK14rWWaWkYZWawQdssytaK3sZUkXq8kUFA8EKsoVesJtuZdQMGzvslqoTYRYpaDoS/t4EFlGjIGgj374uOsXVdNOTZi5hapSRB5HjqAEydWAcQIkhEeyq3g2jVXAuSPeYC4WzV+gwhiRv8h+xzQiGdi3UKowYFPZxHSQJwG42VumTfWbIlFftu543r6zkbNQYR3zDJW43tzCOXAYGuMDYa/Y4G2d5F3kHsQP8J6hUASDsB6tQBfDgkcZmtJ6ZqDKBMm0ia4epgbDuK11yb9wcpEwUtCDCjb0iaEVvDe29dD2tYZxgK8CYzF9kbeX9Yp+iTWLV3zNITI1Jpne05fn7A4o2O3lba6mbzfrB2s+EMEyyMGBg6lQ2RycjWkE2O1ASxS5K3iKkHGuA1yrJR21LDghDZE9oFcsWHB5tlsTLDQwO7JsuSTI5RowD2LQGqJ+0BppwUZ2XhwXxi5RcFwnRXSMwXO70aIzcVSi2gwBhQVhJL6JiaMlXFiXYII8ZKbq4k2kDCCLNvqW6UBkChBxsiXCRCwRHCDGgZs4iVm7yHrtasNczGkijcB03Gxvm2fO+b1zBkhAJzmEbMUMDfEUPKNMdy3Zu6H1KMg49o21p80yQXSz0n1QqFBOqdYerAW4CKuLbZmIO6swTZh/LgyzZJsrmrbZHDp4y6xJBV+577xJz/YHOYoVzHmmoM85sjX1PMGaSVulSzkWJ/Gz8XbQjuSg5B0nfH/HOSsmHFqeKBINgdYPDx90kdk+q6f4vcl9ik3TixdEN02otZ2zc6RKzZ0XDucVmCZWGJygsWFTWZoGv0+kCswwYUSf+QaBc1mwwkChQ0BM7HCrkMKMnLCRhFgicwJC7K25QpXHa6l+NuTFkeG0iL9FquTCWuGsQwpmMrmy2kcBdom4I0lFnKVcxtModR24Z4/DtaqOL3d3H6QHw5VcaFgLKRU06d0w4M7ALD5zVm0qXlD+REjybWxtCzVXDV6q9yOlfjDmc5Ry42Afqz9bQKpxFJX23JVG8spnwf2xHyhL9NPrPBcXIDoHJJi2qRvnfE7eov7DJElEpkl9imHJYc09MlekitTngZO3zeGSq0ku06u2FRg52mKun0sm3pOuA7i2AU7nfWdcCG9bGoEE+cEAsdJmmfUtJZgTcMKgRvFxNxduIeuk7h+UGqcRvvibbDq4YIhvicNlsRKwAaGK5V1a8kDQ5Skt/mzlQUlZ98WNEwsYB1LAPMWC4SCw1Zf9WasWGQYYVlsE57Bujfrbe35sHG0vXNm1cKNnXvXsD6z6XdlPHFYgrzitnIpR4AYK6xKCPqM0AoT9AJeFYtRbYvlo23fOiPujoNh7ju8aa+XSGSW2KfcbJdackezXOUCwmu6d1AsZuYm9qcvGyrnGkG5WgZUCjT/3qecy1/Faa/oi+lhTLjBiN8gtgpFQFkKy7KwWKj4FMtLgXvPqu0z/8QE4EJrK8RK/AtxKjnWz30eFmI+anwjjTExHjZnCA7PZNPCFWjBz+DGWrAPhNJ3MgNRlmSw4FYjy5QYmLY6V9TCwrJH2YqcgCGklbEPPRFNu1qWfXebAyNOuAYp9mrY8V8+10TsEO7qdJ4ZnZGKNrxxLWJx4Pq24Hzm623BBVkTKcZBVfnTRDEfMTkiwYQYIyNUxOhQeqJNcIvaFxXafuddRB90rduaY1/Ts1hT6APCBQg3iNcbf2d9oT8sBov/t+9DxuPsW2cQZPRzyf66RCJjfVoCf+hbZ7yDbf3MZQsbh8jGdPcFexs7a+tY38m+bzBz/W4Tnnv+rpGrdJMxv37873FMCooB4pAK10Gs0irEKH6ICNmFbeZxc0HYx2dzi3jM9cAzUgJtJxN7DuOPMcjhlCOUpLJDnNLrsBrEmVtdlcXHHPMu3As3KgHp/PljNCDDmI2L+DizKkEUUutWPL8pJvbu5/Qev+MSLNnUxsCdzRQLMrGNZEDZH/t//hsLh8s4ucR+syKquczOmFiRTU3IRO2A/THwmuse6MVc8Hpbn3IHqr51BkGmeO7Q4GqevWRylZuvPv4x1zzHzzWPVvEY1jC4JQC85D70Wa6m7rtlaeVIKf2Lf+vK8Jy6r2Pen88pEfcTK1BOpJAxKxfA8z4VCEBaHmDMvvi9hiFA4DCusNzHx4nn5LNPtcnVsN73tyLmDDd0m14nkQXXvVmjyZ7FgkVRRpe6CPStM6y1uAVLrN1LJFd1UV3Y05xcLWxCNujO3OTKMu9ScoUbkgBBTt32h9Nym7Vng2HPeglZXMRCtMXFkOpO5hpWPsgWbig+07TWDXtWoEd+OKnzxBzm5oJK79QuWutcWeZvqtdxYZGtSnY1f0jiICmIbMw2a/PIsPvtEgT61hmWWw4CTq5WvHScXK148kLX5yZXFgCekqtcbBtxTNTSWrNYQGsbuUIhkslFlXtcPS8MShKF6jIvAn1JLsTlUQ1+reTKElByXw5I0bdPC807K/v39L51VhpcDYJuuVrYOnJytbAJ2aA78ect2i5f60axARR+iSPgCDgCO43AriVk7exkObla/9TuYtLB+mfFR+AIOAKOwPgI7FpC1vgILeSO/x8/L4o9GqF4ugAAAABJRU5ErkJggg==;fillColor=none;strokeColor=default;" vertex="1" parent="1">
          <mxGeometry x="31.53" y="502.26" width="396.95" height="140.49" as="geometry" />
        </mxCell>
        <mxCell id="L1uXZ-0WNazWU3tWqJhK-138" value="" style="shape=image;verticalLabelPosition=bottom;labelBackgroundColor=default;verticalAlign=top;aspect=fixed;imageAspect=0;image=data:image/png,iVBORw0KGgoAAAANSUhEUgAAAm0AAADYCAYAAAC5k9RRAAAAAXNSR0IArs4c6QAAIABJREFUeF7tnQkYdttY/m8yJipTRIPMIfOQFErmeSiSeRbKEJVQf01SSuZ5SChCgzkyhxChwUyGImMjov/+sZ7OOuvs6X3fPbx77/u5ru863/nevdde617PXutez7RPJosRMAJGwAgYASNgBL6OwOkkfa+ka0n6X0m/bGCOB4GTHU9X3BMjYASMgBEwAkZgZgQgar+U/TFpm3lC8sebtB3RZLgrRsAIGAEjYASOBIEgbyZtRzIhdMOk7Ygmw10xAkbACBgBI3AkCJi0HclE2NJ2hBPRs0uYrNuk6/eej/FlRsAIGAEjcAQIdK3pXb8fMgSTtkPQG+leW9pGAnakZv9S0pVa2vZ8jgS8mzUCRsAIzIAAxKlJXiXpyiP2KZIQxiSGI3Z/nU17k1/WvAZpa3pReYnrpOnFj5f+QdVNTS/mUnWkbbFjTJBf8KwT8G3Cclkas6zeooPoYtucNB1c3irpUssarv5I0k2KPte9b3W6/AhJ91jYeJfa3RL/v5D0o8VgmtaTn5T0BwcMvOmQznvQl7Q1rXN5t2irjF0zaTtg4sa6dakb8lh4HHu7OWnblVSwof11GuDlJL2pZrCxafZdDI4dL/r3t5IukjY4NrpSYrF9X7W4nncJA9pAH/voYWykEJe6eV0STM+UdC5JvJd3lfSYhs4z5jtJeoWk9y9pgCvoa6yfX5Z0ynRA4KBQt548TtK903r7LyOMPdassddpk7YRJu/QJk3aDkVw2vsPIW0/I+l3qpP9uyVduKHbT5F0a0mPlvRT0w5tlKddUtJbUssXlPQPNU9hvIz7sZLuMkov3OiuCDxR0u0kPaMiJ7eoufk8kt7bMa+7PnPO6/9J0sPSn49U+vhdNZ05a9LfM87Z0Q0/+26S7iPptZKwnj056WgJyW9IOpWke42IlUnbiOAee9NdpK3LrDqmP30o7NrG8OrqIUvy1x9C2jjN30zSkyTdvgHcD0r67hQnsaslb6j5GrKdO0ri1ItVgo2+TiAGN0/kgL9b5kfgXZIulEg0ZLqUu0v6vY55nX8U/Xrwg5JeKul8yTJztmRNe3xxO2Pm2h/r16yvGhiB35f0X5WF7c8l/UlqG+tbaW17rqQ/rPT3OQM/P29ubNIWLln2G1ymsRfMsSfQl6aQCTBZ2h4e87g3t+oibUMEQV6+8v+/vmUBbtPtc6YTyz2T4vCC/PuORKttDCjkVkgblgmIC+6VckNgDr5f0hskvUfS+UdccKZs+gmJoD6rGtdPNDwYKwd6xqYZ1psp++hnnRiBsI7+R7IIf6gGoOdLun6KFcLqsWR5YHrfODhgCcciXhef9/JEBOre3SWPfyl9Z23AFf/iZG27QlpHWU9z+bCkH6jWnY+OOLCxSRuxliFfqPZg/nx+pi8jtMUe08e+e/idK9J9v3RAZ5/bRdgbmuTb0w9/V4U2fHKHRvdOKuxL2nYNfM/7/jxJN0hKfDFJn95hYL8g6Y2SeBEemtrZ1XXXFsjZd8J36PKol+5racOlErhfQtLf1PQSYoyLpo3gjDq4ERp/h6TvS8SfDbGUIKpgc+YRnu8md0eAhRUXU5seflbSt7TEKe7+1PnuID6NGDYsNKGP9AYSh3U8hMPnuSV9YL6ubvbJhFawKcd+SejIIxOR4YAbcWuXTcQbQ8WYMjZpG7Pvu7YdY80tfmUbXRbAM1WHvLenw/kLEo/o2w8ShSCxPCO4RPm8SyfC9nBJ/OkjbbyE+xu5WV/S1nVdUycx52PtCMsNfv66zbPp/lemDRfAEb6HxoL9iT6otFyTK8IWLG3XkPSidFJ/VDLz/1sVLMsfLJf8l4wocCFu47cPxPcYbj+tpP9MMXwPqeJQSDQox/zzVUeZ/5dJutoxdNp9EBalqxRumRKWcC00JdQsCcYvSjp11mFcb9eV9MIqHvPa6d95L4nza3LxL2m8S+wr8ZX8CTJ2lkQCsLLcIc0N42ItOcPI8Ww8Z6ukbd+9GoMEVlJCf5AfStbSXXQR7kE8OB4AEtZyDoI+cNgk+eTQrO7wDM5G2lho/j7FUuH2wPKBta2vwHA54ew7WU3P2Rppy7PxmjDBRcimsJZyF/nC1qZvXPfrkrDqWuZHIBatttNznFJ3PUxyHy4M1pRjEE7of1rFXZ4968xNk5WRf+LQ+7pqo/jZisRxrePZ5pk14oAJo8j3IQ62GCH+LJFseoaRAavpLvFs6GSXpagctUnbbnqA0ed3U2wcxK0trrup5fBEUYHhMg0XxdpFJnhdWEefXs9K2jgFs+CQSUPgOwHhyG1Ttl6fAUQgOQsZwZ1DydZIGxlPxGDcuCp/8cc1IGJlekn6d06KWKRyYdP4zfQPWOSenRQ/riFGANcO6fBYSiDbTxtqsvZs51eq/ty/Ss//VUm/WNPG6dOLhev4hpKIk8qFOIZ/TP/wzrSRQu5CiFuhVhNBsrygjHfow0XX0CNItysYl35dsUfQbt/ruvq17++4lwiHQI8u0OAKjANIXa2sb61O1J9JD6cN9JR1A6sVcpsUAhCW+5z0tRWt3nc8Xfehl9+T1sT82kjEiFM7JID3qoxnw0KMDv53GivvHTFXSI4FAfT8xh8s7lNIX13a9bo2N9lY4yLrHJcoruwQSPSb0/9cNJUW+krK/M3j2W6ZrYUfT+sI3qdYW8hcv2qKJUYfQye/2lI416St/0zzzhM3CpGinA6eJuaJMCHKQfWVSOSD/EHgSslj7w7xAMxK2si2IX2djROh9ALWNggE5sm+QgDoN1Z1xXDx7QJyW/tbIm2c4lksEMz5da7l2AjZzC5eAxzJCRGMyebPyZCX4akpTgByzYuB4F4l/jB+7zvPQ1/H5g8JuFbDRpW/ZN+ZTtJ5H3DB/VyqZ0edN0gdp+p4YbGQvK26Aewi7mFqK2UezNpmdep7XW7lmiMzPLJCSVzikFEnHC44ZDA3uL1zuZGkUySihssC0sO1jAXdhmCjv6VQ/JTT99TCWkgMDPFsucT7GLUDORT8cEFicdEwHhIxTpcI3TWzsXZhMfZY++pcXNdVc2wu3STW9WNVyAiHvC8VoHEYAPPfStZQrDCQuVwI4mcuIN242Fg3sNrF+9WURUh8MetNnZi09dfe16TyLOxVCJ4/DoRN5KupZUg2eyDx+cTFlZIXBieGLg6P/Xv69StnI23EpGDRIX2dUx4SVjP+jpm/jwmZEwyJB8QSNNVs2hUUrt8SaaPO1dMTwYA01wkLyXVS/CHzlAuxHLi5cxIGGefUyb9FnTNKNOB2iuw/XhJ+n0NyKxkB62Q+lUL8AYstVjSSFXJhQ4So5kkvJNRAaDmxxcsVY4y6YU2ZuWNhgB7jogny2PScXa0ZXZa7scYT5VfYsJifOmEusQbXlVvAagEmMUcxx+gwdbXQc+LFQrj2eg0n57HGGO0SjsDm/U0pTiZ/XsTP8G9YxxlHGdweNRXL9y7G2oXF2ONbixWYuELeMUhzKbH2kYjAgYMDAfXccqGMEodmLPNIJOZBHCACkDr0OYR3lTWLLOImMWnrp70cpvEQxXrAXXEwZB1hPWd+uoQaiZFsggX7c8UNxKRiUGLf6cttmp45G2nDKkFtLKwuuYS1DRM+J5Q2YZEFbEgEGyjCqRmXwKGyJdIWhUpxrZTp6YEjJ0mscLixS4sDiohrm3tjHjgdcvqHlLHB4ALA8hEydyXtIJpthYTD3E2mIgkJpTBmTrrUZUIYM/EQ+QIQ98SB5JBYhkN1eg33Y1kiQ5LyLGSPlhLu06Z55bCIhS7c1PGeB5Ep44dYjzisHJrYtA/2kDHIQFOmYXziCtccLs2SxEIm6Hu80+VY2bDYYMKlGr+z7oYLdZ9+b+0erJlYbx9QM3AsnLiyWRdYG/E2lGE8MW+R3BUWmSBtuU7iTSJRj9/axKStnxby3vAehZUt7uKQC2EjhKZuXsvW8dawD9TV+2T/++nEU0hGiDCifj086VWzkDYUDysaJ8mSkVIrJT7R0rZ4RMZpuFHjVEmweB5XxJBx/xHTQVZpX9kSaYv4mDpCBl6RWcrf49TehiOWCjLcYiMsrwVb3AZsnnWlRfrO0SHXBVFtCjgls/RTya2ElQ1rW5twPbrMBshJLYQFner1bLxsoK7ztv+ssVHhukDINo8DQt4i7tD77hBIjCWVr1zU6SJzRz20IOX793y/O+nbyVsyDXHDYJVB+pze28ZKG5CFILX79Xibd+GOh0hRALlOiJmNJKbv6FGfDZc4oQx17n8OkuyPXNMmJm3dukgdR+at7pAdPOSfUwgNnqM2yb/NHUkj7AlwHFyhEEPmrtQRSsXEmtbd469fMQtpYwCcmOuy8U6TNnIWaIhdXTZUvAQ5qatTUlxSuOMAi/gAguFxr0TQcR+lX3udtrBMgEVTzFOc/CBYBGd2CYsYJv26uYNAE7tBjM7UQfl5v6OQ8NUbFtuIQWvDJW8PncSNBsHFpRVCO5jOIX5YNZzd16U9zb+H26LNOhrxT03zmrfOASSy+UpdxB3FaXuOEhrfluKesLxgTeRASh3KOiG2jwNBV302TvuMla9H1L13WOWwGqPDuIgt3QiA+Y8kLwPvNbFRdd8RZWMmXpIDQFd9tlh36uYB9ytWnz6xpCZt3fPHPkSsamll486ch3AQzL1EdS1HIh9rFEaQXOAdZawjxoKoq8h/4SV4DvvI5KSNFHWUm4WpqTowAIW1rK5eCn5+Nt2oUcRAQ0nzuDayeQCQ+BsEskgmVQQdtwG0dksbn/jJLUI5FhEL1PSliLaAYDYFsprIwqkTsqmIA6t7Ufoo7CHX5IGgZTt8votMwrYq1E2kFtcnB5Co8dPURzbeN5m47TyFXXpIkdmmz4s1HbqweOD6JGkkL1AbnePdwK3Y9A3enQfR84Y8+SW/pcmSRjwqlsIuMkAAPFjUWQ2JMUUvIaj7liHoObzVXNa0ljStEYRSUL+r7XujEevblAzGmkkbfb75bNLWrmok5zy4wcoWdwYPoU4pxo2mMkB5fGldwlrZE4g+B/hILopSIX0T8yYnbbBJ3EhtyktyAosMpkVOmZQACSFTB7dV+dWDUNLI0uH62IDjRYp03ia3XQ7u2knbGKsnSo57hT8IJmM2ihBO8pRhIBuOOYY4Lt3yhAsj3Bn5mLECUwaFLNkooVDq4xhz4Db7IUC5D+LisObzrmPhyDdDDpak/fexavR74nxXYVGArPHekTHLOpi/l4SNYEEn4BossBQTm2OZFgE2Y8q7MA+sHxT+DlcbsXGQh76eH5O29rn7q2QhbTMesEdhIcXARBmQMoEknkBRXt4tDBKQuy4pv1oUpK9vYt6kpI2Cc5zoIGMEtrdJsE+uAYiodxPKWLLSyALDPRX1xLiWIPky0NakrUutdv89yngEQebUSIZflE/gVIEFLkgacW9YCdgslypke1FnMMaM65dPCBHLgOUOC06+yGJpY0NsKlWxVByW1m+s9FhGIzsdqwlWfw6CIYRvkP3clJizlDHjmqEmWLx3jJUYy8jaZh0mCzGwoJYgB+Vdi7kuBY9j7ScbcW5NxUOEJyksn8RdsbaYtJ10Bnc1sOAZIbGsLpatbJ09LEo41WWjc30kBBEf12aMirbZG7Cm4pXCcorskpg3KWmjrAQnXILA6Wx8aJb//k/N2xRxR9RzI/sQiZpi5aeUyHZi4b1Vy1tJ1gbtUKiwq57bropwLIvBvt8ePaT/uJwp30KdolwiGzXS3stnNGUAHtKXqe6NcgX8N5fcdcyGiQuOk1i4U6au0zYVHkt5DrWXyOQqpZwXEpfIGp4z7vJQTCNDummsTVg0uecO7Y/vr0eAhBpKCJWSu1rjm7MmbSfFade9mjWZ78KSABA8hGLx8BCs67nkMd9N1RU4iGOI6pMMVKcBZJRCDPvwEu6fjLTlft99Xt48a5FAWUzHxJ3gKsU/jWsO0Jr8zhFoy7UEH3bJrorQ1d5Uv89B2vKNDYUi04YTPC8A1grcpdSa4qUoheDoJQr6kRM2XP7oHoePGBOuKCyJ/GGBYKE4ls8jLRHzIfpc5+5EZ0vLEqdnApAJHl+qEJ6Qb/xkQFN7Ch1lvJRH4r0ss+qX+k4udZ7K+m7oY51Osrbjwu+zhtg9Wq8NeS3YffQlt7ZhQMJrwlqB7HMgxwWLVZW41D51aSclbZjdw1q2D1ilvxerGTFDZJJRmBATf1ugIMBiuuxbw82kbZ9Z8j1GwAgYASMwNwImbfUzQH1YSn3sK+Hhg4+QoR7lOiBfJKKRddqnLFY8n5p9lO3Z5ROck1na9gWp7T5ihzBftsVfYOHDHEqhPLJOqb9CYGEeiFv3DJO2MWbMbRoBI2AEjMDYCJi0jY3w4e1jWSPWG8J2sRTjxjdJu2TRpK1rcNRaIvibIpQhBMbjJoiilE1tmLR1oevfjYARMAJG4BgRMGk7xlk5oU98HACvH0mTuFn5g+uW8kVdsmrSFlkdJQh13wYrrzFp61Id/24EjIARMALHiIBJ2zHOytf71FTj70Y9jEncv2rSVmb2xTT2SWc3aTtepXfPjIARMAJGoBkBk7bj1Y4mXkKP+3CTVZO2Q6bNpO0Q9HyvETACRsAIzIWASdtcyI//XJO2BoxN2sZXPj/BCBgBI2AEhkfApG14TI+lRZM2k7Zj0UX3wwgYASNgBAZAwKRtABCPtAmTNpO2I1VNd8sIGAEjYAT2QcCkbR/UlnGPSZtJ2zI01b00AkbACBiBXgiYtPWCaZEXmbSZtC1Scd1pI2AEjIARqEfApG29mmHSZtK2Xu32yIyAETACG0TApG29k27SZtK2Xu32yIyAETACG0TApG29k27SZtK2Xu32yIyAETACG0TApG29k27SZtK2Xu32yIyAETACG0TApG29k27SZtK2Xu32yIyAETACG0TApG29k27SZtK2Xu32yIyAETACG0TApG29k27StjLS9glJZ5N0d0mPXK/eemRGwAgYASPQgMBNJT1L0mclnXHlKC31k5P7TotJm0nbvrrj+4yAETACRuAIETBpO8JJGahLJm0rI20vlXRVW9oGej3cjBEwAkZgeQgEaXubpEsur/s79diWtgKuk3XA18n6doL/eC5eqiI8TdItJV1B0uuPB073xAgYASNgBCZC4LslfVDSKyRdZaJnzvWYpe7V++LVybm2StquLunFkn5N0v33RXeG+0zaZgDdjzQCRsAIHBECWyJtS92r91UXk7YG5O4p6WGSlmZeNmnb91XwfUbACBiBdSCwJdJ2D0kPl/R2SRdfx/S1jsKkzaRtA2ruIRoBI2AEtoOASdt65/pg0kZK8akknW4CjH5J0vdKerSkV438vLC0vVDStUd+1pDNT2VpI47gQZJeXXWeebEYgWNF4CHVmnFWSS+S9Jxj7aT7tSkExt7LtkjaXiLpGhNqEevKuSbiI/mwviTp85LO0jTWrpi2f5F02sqVeIYJwAqGCWG78sjP++EUxPkESXcc+VlDNj8VafvLijhD3JAuHRlyfG7LCOyKQKwbv+wDxq7Q+fqREBh7L9sSafuhZDx4iqTbjjRfdc2OPYdNQ/lvSf8q6ZxLIG2cTi6RYs3GtrSZtLVr/5osbSxwL5f0KUmXn/Cl96OmQeBRkphjik2TXLREuWFVNPuxkt49wYF1ifgsrc9j72UmbeNrxNhzuArSNv40nPAEk7Yp0Z73WXetTM1s7MilJL113u746UbgJAiEjn5G0pmMjxHoQMCkbb0qsihL25TTYNI2JdrzP+vekk5fdcPxefPPhXtwUgTYhCOG9KkGyAiYtP0fAnO5R+dSQpO2BuRN2uZSST/XCBgBI2AEDkHAlrZD0Dvue03aTNqOW0PdOyNgBIyAEdgJAZO2neBa1MUmbSZti1JYd9YIGAEjYATaETBpW6+GmLSZtK1XuwceGbUIqRP4EUmUurEYgWNEgA+Ev1fSF46xc+7TJAiYtE0C8ywPWRRpI0icLCo+hv6ekeFyTFs7wNeX9PyqRtuWal/dXNIzEiyuTTfyCzhg89RvokQNa8dSS370hYM1koSFKWpZ9u2TrzspAmPvZSZt42sd68q1JuIj+WgWRdqmLGZn0tau9FssrsvGz7gRk7bxF8WhnrCl4rombUNpzbjtjL2XmbSNO3+0PvYcNo1gUaTtYpLuK+kBkt4/8pyYtHUDDIHhQ70v6L50NVegg5+we3RR83nrimxfMVmFP7Sonu/XWbtH98NtyrvG3stM2safzbHncBWkbfxpOOEJJm1Tou1nGQEjYASMwFAImLQNheTxtbMoS9uU8Jm0TYm2n2UEjIARMAJDIWDSNhSSx9eOSVvDnJi0HZ+yukdGwAgYASPQjYBJWzdGS73CpM2kbam6e7T99ieHjnZq3LGEAEk1ZJk+VNKLjMrqEDBpW92U/t+ATNpM2tar3TONLDL4eLyzTGeaBD+2FYEtZn9vSSVM2tY72yZtJm3r1e6ZRnZVSY9LtbJuM1Mf/Fgj0IZAHCy2VGdxSxph0rbe2V4UaWOhoSL9o9OGOOa0OKatHd1wr7y6uox5sRiBY0XgIdWacdbkBnzOsXbS/doUAmPvZSZt46sT68q5JuIj+WgWRdqmLGZn0tau9HavjL8o+AnDILCl4rrDIOZWxkZg7L3MpG3sGXRx3V4Iczq5hKSH2dLWiNfTJN0yfVrj9b1Q3e8iW9r2w813TY/AoySxiT1yA5+xmh5dP3EfBMbey0za9pmV3e4Zew6berMoS9tukB52tS1th+Hnu42AETACRmAeBEza5sF9iqeatDWgbNI2hfr5GUbACBgBIzA0AiZtQyN6PO2ZtJm0HY82uidGwAgYASNwMAImbQdDeLQNmLSZtB2tcrpjRsAIGAEjsDsCJm27Y7aUO0zaTNqWoqvupxEwAkbACPRAwKStB0gLvcSkzaRtoarrbhsBI2AEjEAdAiZt69ULkzaTtvVqt0dmBIyAEdggAiZt6510kzaTtvVqt0dmBIyAEdggAiZt6510kzaTtvVqt0dmBIyAEdggAiZt6510kzaTtvVqt0dmBIyAEdggAiZt6510kzaTtvVqt0dmBIyAEdggAiZt6510kzaTtvVqt0dmBIyAEdggAiZt6510kzaTtvVqt0dmBIyAEdggAiZt6510kzaTtvVqt0dmBIyAEdggAiZt6530oyFtfynpgZJeuwfW15V0T0mvlvRuSa+Q9Jk92slv8QfjDwTQtxsBI2AEjMAsCJi07Q77+ST9vKTbS/rK7rdPdsdRkLY7SXqspJdKuvqOQ79ruufPJT0u3fuqisBdecd2ysu3RNrOLunjDXgFlg+qfv8lSZ+T9KGKYH9V0ndIOoukb5f0iQPxnuP2/2156MkkXUkShwleEsb82TTmc1bjRWcfP0enN/7MO2bveQkF7zz6ypwxdx+V9E+SvlUSm9hpJDGvS5I/qg6iN8k6/BZJl64ZwLskfY+k96bfzivpLyRxoLWMj0C5lrAX3bl4bKwn/5zWkzNLOs9Ia4lJ2+5zHuvGfSU9dIfbLymJ97JN3i7pRdV8P0PS3+/Qdt2ls5O2U0v6lKTTp95dJVnK+o6LRe0e1QvCi4DwsvyZJEjcIbIl0hY4xaLC//+YpJcnkha/s8j8VPU/kDc2x/tLesMhIB/BvZepdO+3qw3uCtWG/svV5v7UtKDmXbtiGi/W2xulvx9B1zfbhVIPf1HS6ws0Llsd5t6Y/o15ZZ34uwUj9rvVofb7q4Uffb21pKcVY/kmSd+XcGjS4wUPfzFdh7xxoMVSc/Hk+ck7/22SriHpKQ1r7FADNWnbDUnerecmA8Tnq/frXOmQvksrPyrpZemGS0l6a3bz7ST9ZPX75SXdR9Ijdmm4uHZ20vZzkliEb5YAe76kG+4wINjxn0hiURtStkjari8J/HExX7gBzCdJuq2k56RFZ0jM52orTskXlPQPNZ24Zdokn530dK5++rknIPCwFBLByfUWNcDEpsVPLMhB4JaK4XuSZRcLwGsqayIHiTpBl5dmTVzqnJT9vmqaI3TtxyWho/euGRyHXqz1uOHGEpO23ZDlUMe+hyUfz9EDJP3Kbk3oZyT9Tsf+GXvNWZOxasdHfO3yWUnbd1anjjdVFp0fkMTGiAsOuaakF/ccDYsYJ0/cqjmz7Xl742VbJG0oHIoHMWtaUP5REr5/LHEQt6ULCy1u+fcnV0XdeHCD3iFZGR+99AGvpP9YeCFjd0mhFeWwWBOwZmDFZ4FcsuCF4DDBKf0d1cbwzcllimUgl5tW7mBO9Jz4LdMjwF7E3LCeMDeEklxC0geLrvx+stazzo4lJm39kcXyyeEPQwVhL/CQjyVLKetHX3liev/w1tym5iZc4RG+EKEcfdvOr5uVtP1GijVhsSGuCr8wLHcXKw7KCVmDJUPc/nMfFGru2SJpA3/887hA68gJcTKc+Il/O8dAOM/dzG+l03CbzuFWwwoHNm+bu8N+/tdityDZCDr5vhpMIGwQN0Illh7XdfPkvoegxgGCQy2H21ywFrAWPsQ6MgsCEGo8R8zN30i6mKQHpwS7vEPEN/3EyO56k7b+KhBWNsIKch5yP0m/2b+Zr/EX9ggIG8StlLtL+r30j1haIYb7yGyk7XuTlY1YIpQdwWwc1rYf2iGTNO6DBJL9MYRsjbSdNiO8TacAlPHJK9kIQ0ci+JQXFj0qBbIGafuypFMNoVhu42AEIhnhJSk+qK5BrBtsXE3zenAnJmyATQXrDAQ0j5sp43+JueT3IT0OEw5z0Y86XRWr9O+Za5p96NfS4eICkv4njQ5rC+E8Fxp5tCZt/QD+wRSHxkEwkumCT+BVIi7xv3o0le+fxMORuFYKlTEidrpur+nxmK9dMhtpe2TKxLte1tOc5XJSJnaqTUhAIBieWCP+/sXkQhjCGrI10gZJpmQK0pR5e69qQ7jOSjZCxnmKVBoG9xOEtO5FIzmDgwSB7rxwlvkRiIxKFr7Q2bIYvzayAAAgAElEQVRXkHEEfT00KWnuEbNpsCmEENPGZsMBCncoQhICQdBnm7uzG30+1lysbLiwkXNLIqOXjGVitIkVRrC2XHTkeDaeY9LWTxF5hz6c9rS4I+chTV6nsvXYP/+l4R0k7vbpKbmPkJxDZBbSBnuFWLHwvK7ofW5tIx4AM3OdQCDI+gtT5AuTu4CXAkJ4qGyNtAWeZIU2CSZdTopr2AgZIzFRxEa1jZnrIG5NQcWH6pnv3x0BLEqU8WibN+YMWWo5mkAlXMF5csHdUvYZizdkjTgZykvcQNLVdofTdwyAAOvDF6p2cgsKGb7EaucGiOdVJVvYq8aMZ2M4Jm3dk0rpnDc3rBHBQ+ApZGx31W2L/ZMwrVtJIksYowA8gn2GWEdcpngDD5VZSBt+XWp8sciUgrJB1L4lLUxY0EqJbD7YKwGEsbFyuualoCwDQtzAL6SgUP4/X/jCDdsE4NZI258mMnZjSX9cAwqbAe4ohNps/1pcg/JjjSJdOheyZXBRMa9gzimDOfuD6gT6t4dq74H3Y6UlQ+hXK/cFZSNKwQKH9e2MVSA4cZd/WFzwqCrm4RvTSa28l5c+z2AkFpDDxCGp3vsMl6QRyuBQfJpYmiYJi2LXddEec9pFdvfpb9c9BAu/M7mrcTt9oOaGWHCpU1YG5ZN2j0UkgvjLNYE1g7mus9Yf4tLoGlfT77iCr1WtiblHgsQKrDi8h+H+hQSgY2U8W1gliUN9QtKFcAMxVqxAtIXssj7uO578vr46F9d16VzoJklUEfM4RD/7tEFCHWsIZZJCmDesvJ9O7lCsMPwdY0VefoZ1hP0wdK6cB37nkML89p0nk7buWYNEUSqM9aCUnIf8dBaL1tRq7J/o6F9Ve+XlsveJYv/5RwMwfrCX8id3qdM2HKZrXZ2ctGGpgZSREk2xuTqJLEYGhFWuDDRGuVH+fEGOGmN5QDlF8uqCcnO3QtMkbIm0YQ5mkcMF02SZyP38bJalcMqMWnvxG4sUmTksUHztApKERKFe3I1lfa3uV224KyKejcW1ThfzunV1cQosyNxbCocKYpA4aRMoj8sENxbZRfydl3oqYcGnADXkkzE0SWzuXdd9MpGFuQL8oxB3m7uaxZBDBotx+f5HrFGJQ6wJTWsGCSs/O9WkZc9hXhgP/csl5hWywAYBkSXxIo9n43RPBiMkgE2Ie3jXee9I2DpkfRwCir46F9d16Vzo5rPSgX2IPvZp45SVceBLVUFW4trKRDgOs1h00B10iCzgcv0MfS2fFV6jpnWmzatk0tY+c4QAvbLDEh88hNg26j6WBol4Qr5/YpTIiXtdL/Iakvnv8CL61fScuHZy0kZwJosGPuAmIesm3KK/nqxlcS2Wjf8o4jn4LTbYh6eyFfwbFh1O1rnAeomVw4/dJlsibeFvhwyT/VIncZKoI7yccHHZ5FZRMmPYMLGqRgJDEMKYKyxPLDxzCH3mZUSw6ta9KNRYYqFtqlvHyZd2QrBoXSSLayEYHhLEi4hVhE2lb4zEUJiwiNAvCGSbpShIeVfgft/rhup/2Q5xIehrm7uauTxDZeUoC1zSFgSAg11eroY5Yj36SM2ace2UADBH7TPGQN/QsdKynR8oOAhgRStrK/JvP5JcNLQTZVCoiUkccEkgWHfJfIQEdq2PQ8xvbF5D6dxcuhnhE4TzlAJZIwMRrwKxbOgvh7pcytp6uNM49GHgQMp1hvWUNtq++mPS1q6hWNqxPtd58uLOnIdgcIC71Ensn3yB5fw9KlhQPopr87JmxOZSMqZP/O2kpI0gWcgYqesv6Hjro3gm5kusbfHFg/hkBG6cvKAuC9EzUz0tLBoIFh0WhBBeDtylEMEu2RJpY1PHDUOZD0hFncQptu7zTRE/FGZd5peFhVgABKsH7WJtiro3zEVTPZuuuRni99jA2goJxwm/iSDk+kXNQTa6fHNn4cTSwZ+wtJE1tuTK/ENgf0gbXXUCY6Flo2MBLQULHXUhm9aEujVj16+0HDK+/F7eG2JgWP/qJCzFLP5sQGVtRUgMRCLeu9jIY+18TFqL91kfhxrjGtoBZw5ldWsnmON+xgqH1Y1Db3xuMcc9XzdYGwkdij2ybp3pqq5g0tasWXEQ6xPvShgPYQQYITgEBg/JW4/9s2/x9XKNgaidvKaET9MIJiVtmOMJ0uuT7ozfl1IgxBPl9VIiMBcgMYOH8HdeHBbYOuHFIlalzrVXd/2WSFvUl8ljBHNMOHmHS6/OelHix2bSdgoMK8EuRZSHXtyJLcM62FZImO9Wood1CTNlf0jjx7JRnpQYK/EoWIDRf15sy34IMBfMCUIMEKfVUqIqeR8XGfOB1b1pTYDYEzIAuZlDWNyxAkOy6oTkg+gbhK0ruD1KpdS5cDigQHKxBll2QwDSjCW76d2Ooqu02nVoQycJY+DgWyesMRw86uqA5debtDXPIbqONR6LV5dEXCLXNdVt66pv2vYM9lMSKpu+cFJ372SkDb8/VrZdKgzTYTY9rCGcNqmVhZBximk/TpZhZidYFzdeneC/Jp6FGJA+shXSln/stunTGuF2ILaQGK02wWzPopNbOMvrcU1x+my7ps8cHXINrmB0qunLDrn7qcs1xkLMZ084FJSC7lLfDVfHLkWjDxnbWu8N0gFZg7TVSVfdvfweSmQQa9n0iSvWmbnKvFDHks2Fd6TpyyN8b5TkEspLQLa6Env4nUStOjc5YSOEKtgKvNvbc5M0T21kLNYSsO0yWJSW4Lw36ARxiW0H4rjepK1+HvtWDMjvjqoJJQ/hmnz/3OcrB4QPkfjXVLqobhSTkTZMx4eU4sjdodTE4WRDvSIWcF4c3Ai4seqEzZmFL2IE+ryWaydtmHQjHit3b/L3IDJR6yp+/7dkJsZE3LRwsPgTj9F0EiSYGFcObtapBcsJll6kdOni2mWDJD2fBQ+rbSywxANFbFpdn4ndo5ZWV3YhBxYwBV9LfwRKPeTOcMWjhxzaIpU+5hWXNHOGBbRuXqLsUBMhZ00hFqkteaP/CPpfGfFRWL2I30VwCZNMwsGzFMZGxnfTt4LjeuqEQdrqsub3WR/7j2idV4bnJlzwJCBAykg6qBOMCYSYtH1vFJ1jnpvWVtYZSkmwjnWJSVs9QlimsVDvK1jm2SPq9s/YJ7qynOPZrC0cujhw1dUIberjZKQtFtO8I/hx+dNXSOEPoT4RMVOwYMzTbRY0XjDMj31OKNH+2kkbp3OsFRCoUiK1vG7O4tq6tGSCnpmjphMHhI755nesergApra2MaYhx4wVjVg2XuKcHPAc/oBTYAX5IOYKd6mlPwJdeojFCeJWV0spFtLyacwVBL6JlHG4oN1d1oz+I2q/sm68bWUA2KDbFn3eyW9IY+Faxp2/d/usj0ONdantYPWq+6Zt0zzFWtA2XnSOhJO671Y2rTNN7Zm01SPTtpb01UXmOPbPunu6SnbEPeHB6vLklM+YjLT1BWSM63AzYDnZZQFeO2kbA+dIBuH0GcQvnsMmwSkl3FoE0lIjrS2LeIw+Dt1mxFmVCRp1mWxYTDiRNwWWD903t9eMQNeagPseyxSxs0sWgtkp/RFrH+5edDaPv+rCYsnjX1Lf0TmyGussw7HOdGXaxnhN2o5/5kn8w3Bh0lYzVwQvE49l0jauIuPCxkVdKmHEfZRPLzOAx+3dOK2TnUdtrDrrIm5kMgBJqOGEh0UYF0eXG3WcnrrVHIGuNYFAZeo0LXmuIgawnPlSV7uwsOZMg0CbzsU6Y9J20rmIT0j1+fTlNDPZ7ymEbhDqZdJWgxcnSb4BB0B9xZa2vkidcF2Tubdp48tdh7s/7TjuiCDjuvRxUsspIs2pl8LDfHmhKaj8OEaznV50rQnEgEGyH79gSJq++kLQc+7CiSrsU4cqLBjaUbrepnNUUaCgfFPiVNkhW9pGmaJBG2VfxM2+a4zzJtyj+yBt0rYPar7HCBgBI2AE5kbApG3uGRjv+SZtDdiatI2ndG7ZCBgBI2AExkNgCaQNKxOeCmK7DpGlukf3HbNJm0nbvrrj+4yAETACRuAIEVgCads3e7KE26StQKQrSI6PglM1nO/krUmGsLQdEsS8773Ur6PA7dwfY1+TLngsRsAIGIElIXCspI2kNPgC32AlUYbsSbLpKa9znwrgffY9kzaTtq8hYNK2pCXKfTUCRsAIGIFA4FhJG99VRciiJwHm59I3W/k81+XTF3eo9LCLmLSZtA1G2nZRvKGutaVtKCTdjhEwAkZgmQgcK2kDTbIl+XwTWcx8deb+ydpGRvc+n1EzaTNpM2lb5jrlXhsBI2AEjEAqM/RBSXyF5ipHiMgNJD00fSHnqqmO6r7dNGkzaTNp2/ft8X1GwAgYASMwOwLHamkjZo36lcSw8RUZ/v+dVQ26uyeL26/tgZxJm0nbYKQt/Pd76OHOVZLjGXaP7oO27zECRsAIrAeBYyVtb6k+Z/gRST8r6RbZN8FvKulZVTHruiLlXbNi0mbSNhhp61K2MX43aRsDVbdpBIyAEVgOAsdK2nIEsbJdb4BvMZu0mbSZtC1nbXJPjYARMAJGoEBgCaQtvo3bVVasa3JN2iYmbVGXZZ/6LF2TecjvQ5T8OOT5+95rS9u+yPm+Y0fgLFX8y40k3VjSj+zxoeVjH5/7ZwSGQmAJpG2osR5K2r5B0gNS0sZrB+gU6xRZschfSfriAG3mTcz6RYRvlPS5yr/9H5K+T9I/dQzupyQRqMh1nyquvXLx/6QP85mMuO6sqR5M/qHktsdthbRFVWqwoD7OeapUbLDswulnKmX8+eoTJOAa8pNVnZ0/GFhBx2guPvKet83HsrsODnX3PULSPcbopNs8CQJ1MaJ9TulvkPT9RWt97juWKcAigZ5RyJw//551DJ1c0liOBdMx+kEZi9tk8/Sl9JBvSftcuUeN0Ydo06StP7rE1/1mtUa8VNLV+992oivZByldcq3EZ/5REmSQ9l6cki4+vWfb5W2zkjbAurekb5P0yJRB0jYuFijkXpKuk4gFmy1SkgyuvZWkW1eLGtfwexcRyZ+9FdLGmMHqQRWmb03zwcLz1JaJgGBTGPGMFWH5TLJ+1M3BQDo6SjOMmT9Xk3S5NF7G3SZ/kb78celUa4gDwS46NcpANtRonGApFXAmSeeS9K1pQ2yC4Z6S7izpfNk68NEDSwxMDXmMmyBtDkX/KonK8iHWwalnpP55p5d0ybSWsrY8W9LjZponk7Z+OsH6QWmUb06XUx6FMim7CMaKX0zkjPUmF95TDEh/kwjdJ3ZpuOHa2UgbRI2BPDGZJukf9Vpe3mNQVFH+dUlvShtu0y1/nT5G+5QebZaXbIm0MXasbFSpfnwPAvOCNE8Q7eckArMHxLPfgu6RyQSp/1AiAU2dQuew1lxXEpv+d8ze+212APLFKfaV6aslfALn7Q1Q8Ck33B3/I+kUaf7euGDYHp6sur+Vsu8WPJRVd/0dyXN0Q0nPn2mkJm39gIds/UCyVnOAZ76Yt75yt2QF/4mU/Vp3X1zTx5vT57mzkbb/lzY+fMnvSkz3T6oF+Po9eg2z/f1k5eHEXSe47i4m6cd7tFd3yZZIGyf5T6ZNkM2wjQxTT+f2adPERYrV83f2xHju29C726bx0hfc9f9V0ynI2msk/UIyoy+ZqM6N+aHPv1llaWIR/PsqTOJ2ycr7vIZGiSd5RrLiYxXNXfmH9mOO+yGcl5VEeYQ/nKMDfmYnAudIhzou/K50KOy8aYQLTNq6QWXfw3DEnkaIwR+nWyj8i2GiS360+vTWyyQ9Oa1FTdfDQ3jOxyvr6wUqb9a/dTXc8fsspI24KYgBpmQsHL+dNn/62sc8mccWUaSPmLhcAIlPZBCgyKlnH9kSacN6xIkDUy7zgdXtvDWg4Y7it3NW7qZnJvcirkXmcmmCOZx4Sl5WLGcstozrYzUDISbqsZI4TXEa++n0GZaljXkN/eWAQKzQFyrr2a9UJPt+iUiXYyP2lfUFizyu/D9LVtKlYvCdVbzUh1Pnm/R0qWNbU7/5RBOEmnpkhFHMJSZt3cjft9q7rpFiuLmaMIMrSiIMBkLWJnha8ApiNMKij/W/SYhp/Gz6sU+8eFfPZyFtD0uxKBFDBPuEiZ4mxWxgSWuTUEiugUhANHL5fEpYwN23r2yJtIHTV1NiwQeS1bPOgvm6FKxJTBEWqfdUJuHz7wvwzPddM433BxPpvExlGr9oZRr/26Jfv5peaojt+1NMG5lB+3wjb+Yhr+LxrBME/LIQEt+Fi/sOxcjOnBKQWCdYSyB3D6wCgx+8YAQ4MDBexn+JBY9j7V0nGQHLzaNT4ttc4zVpa0f+tOldYl0g5gyh2O/Ts79jpW8SrPtY5DhE4m1qEwxLYV0bwkU6OWljY3xz2uxzskV8FNmhSB/rTWSSsdkSuxZCQD1sGdJ1iGyJtEHGwI0ATE4ZdeUUWIiI68IiRUFEzMdzL0yHzC8b+VfSuIljwC1fnoIukkjc6RImf1pZI98t6cKHPNj37o0Agd5Y2E4t6VLVafj16XRcZuWRrQW5wZ39wmq9gaDzh39fqjwpufIfldzDSx3H2vvNwe57ktfiuTMO1qStHfy7JpJWZpVHCAL/LX+LFnNPXx/L2bmzxCeMBOy3h8jkpO0xKSi4PB0TUPy2NBJcUXfpGBUZHygmNZvCFw2hwPoDqYB8HCJbIm0Q4CgbQLYTJQYol0LcEHKqVGsmLEyQNeZnzkDbQ+aWe3GZRVZxHBh4kdHPEErLcJLCMoyVBhcyweDE8lmmR+CWKRP08lVW3tlTjEiZQIJOsh6EPuMCxxVO/ApZl0sVYvKwIC75nVsq9n37zWGO72giZNaHS6zv/UNeZ9LWjiaGHjxGYWWLq+ElJOMhxG5zWCoF6z7xtBifiDHtEtYrDph4p8hWPbRu26Skjcwv3E+4Q0uXJgMPwkAdIuLSOLU0CZsujJeNFBcW8pKU1HCf4iYYM6m4xLgxSSzqxLy1yVZIG5kzuEfxyyO4nrBCUcQ0ArzBmli2INq4UHFLny3VJMpxpMQKVjvmjpMmWEetPGJxMCUzF6TD89tcp1HiorCgfTnFRf1GygKKmmuUoqEkDWNEqOFDdnNdEHiUTGGhjjHn7lMWgcCO4sfUg6vT/66Xf5/fWbyZE+LyCJptEuIZIeVd1xEDwkJFHOPUliusu8QKoZ/If1a6i5sjr1PGAYRyQH+eTsqMh42UMjW5xJrAyTfWBJJNQliQsdaRop+3TxhBlBnaZz72ueeCmTu+L/ns867hyouSBLyL+fj36eeu9/TVubiuS+dCNylXNNX7lY+ZgywHWhKcsNL3kdBD1t9YO2JvYg45OP5utWYS8pPrIWtyW6kXk7Zm9Dn8cUDHo1cnrDHEw4JvXW29yA7uSkCItjFC3UnSi1LZj/j3Pu9oXf8mJW0w21O2WCoACsCQLt8vZTzYjMgiZRLIEoVw4BotTziAG3FuLAC4GHD3YWFpkq2QNoIxiV8joBtBmcEnyDDFAtkAY8GIkgt1JTLAngUGYgPZgfRQW4oFiQ2WjF4C+SE5zAMFQ3FfcWqZUnCp8+w4JcXGlQegsvnnMW7ozxkaYii5FusuxJa2IGVBaLHycMoKlyoZjbx0UxXajPekq6RJ3+vCwl0uQFPMH65RcKOeIMLmCNEM3WRxBPfIQOdwgJWUTbyswQchiyQFgsejTmSsCTwLd2wp6PjU5IZ1jvkh2JkDb52Q3EXyBWNBut41Dsi4mXlH68Y/xXz21bm4rkvnQjfr5nvK8YAttQHrBMMCa0AQf/YmDrWUcSn3Jggdh45S0F3eA9akJjFpa8YGwotHpbSyxR3xeS3+/9ppj8pbi8MixiGSKNuE9Z/kNgwE7Av5gY99IzyFu+yHk5E2FkBeKmJR2k5BYW3DUoO1La/+nYMTlfyjPAWLLObMciJI86eKOAsTpRroB1lY/MEl2yRbIW2UWcEETLwWQkkFMkP5c/PKaoZiQYohxwiWKFyEZEhBznLhZWAjwByMYAElrog2saxxgmTDjcBNLD9k6ZAZ1/U1jI53Y6ef2czJ/ol+xGGBl4vTDyQVfSL4GyHwm36jR2F5iwdSSRsLHEQBveYlJ1Mxxhx6GrEPEGKIcZ9YiJ0G1XAxGz4LC/PbVjwYaysEvmvDiw10jnjG3I3PcBkTVjVIW7ggcmsEawGLYXlAw+rGaRnLCEQPwQNAjCNrAgcTrHlBgPidMiO4NuZIZohwhLaTPRZc9JY1Dul618i4RxeZ83L8Q+hdnzaCjHbpXOhml87NqZuMF+s6VtF8vSxxwIKLi5uM9a69Cd3lT66HEArWKQ67bWLSVo8OazX6hjGhTcLaVrfPRTx9nzU8vrbAwT28WfFcdOEfkr7wb333w8lIG+4mLBu5AtaBRiwVJxGsGvmiWl4bLzwV+bGaEM9WxsnFPQSaswjHCR1yASFkEW6SrZA2Tg3UEwoXZnx2g9MciQlYFrBMhcRGWFefDYJCrBGmYCQCNuMLCxBy3E3592ZxpUKKeN5UwomdBT42OPQAPUJ4sQgUzTf/sD5CErCo5cJYsMiRSRTCSw0xxOoYOIQrA+sQ1ualZt1ONUflc9i8WENylwb4Un6FuSKWFZ2EuCC4qt+b/kvphbDgR7usCRC30EX0AeKNLsSXV2LOWGtYi/rEr4yBT7hjmr5UwkGYgwJWuLC+dL1rbeMfYwxrbxN9i88UYfWsC+1hf+JQl68heWwtGPH/EC7CT1gbId+hh+gqazFJNV1i0laPEGEAGCoiS7QJx6gFy+/l+kFYCPsklnqMEiFwF2qxEUeLkJDCs/CyUEILT0wu8bWM2C/jgN+1H05G2mCUKBvxUF0SnYdksSDVSZ7BgZWG2JSoY9TVPtdRRb3cgPP7tkDa2ACfUMRfRKYLikGaMrEZWJhCwBprFJYNyHWbQPB4BgQ5SFF+PdY8SBKbDeRxKoFUYWnjtFuOiwUSy2Oe7o2VkZcYlxOxb20SBK/8ugfkF+sbWGCt5JRl6Y8AusQCmH/bNtyfWMHANz8QYiVmDpviUsont60JbMCUA6hzVfUfwX5X5sVa60rS0OqzkmU4Fv+6J3W9a33WxP1GsI27wkPRFIZAEgmHQSzzWEybhLWpKTQI8o4O9BGTtpOihEeF0AZclX2Ewz1xksQk5+9WxC5iGSPch/0QdyuYQ9DY8+A7rFWEF1HAvc9Xmbre0ejzJKQNky5KvYvEaRewIpsjvz9Po8UESUxAHwnAIQuYLJtkC6SNjRCTfvmhdL6OQMAz5AIrZggnSKwXfT7jFPEYTbGDnF4gLl2xhX3mdJdrGCsvWpnOHRZEgrOx3uRCLBEusz712SgJQrp4GadH+xxYeC4kI7LMdun7Vq/lBAt+bGZhHQWLiEXEVYQFI5fI8OqKjeWetjUBVxdWj6mTD2IsQT7r3jlwgbgSFsLmwCZTJ13vWt81cav612fcUZ+NAx/zkQvvPPGGrB/MWVMWM2sT9SAjBjhvAz3kcJtbdtr6ZdJ2UnSwbLGO7yLBQzAehaeOECBiE/mNuWJ9wMLG14QwZhBCgXGDb59jkSOJrUton4zWPvvh6KSNzZ9Ot8WPtQ0Iixi+4zA5xrUAR+cBEqDIBuwSYrD4fBbMt6tWyppJGyZ4Yi/4/iuCJQGrRJA3fseNhwIhnBJYBOIP/xYm+6aAejZZsqHqgj05jWA1wWXd5wTSNa99fseiSF8h+wjWQ05dYZ0pXQ+4xHjpkNJd1jRm3BknT26Npj4RQ0TSB7rY5zu7fca21msgZZRXIQaNApUh/Du6FZ+Hyd0J6G7dnOFmKg8nXBfxjPminONJiAAuFeKpppRyHPk7x98ZOwWG49+bdBKiAFZYeOreta7xTznmpT2L9TAwjTWCQ1uEmuR6yN/bDhDodMS61uGAHkIG2jJG8/tM2k6MYu6Z20fP2D8wPoXg+mRNgJBDwjmkw3UgcRg7OEBxOCeOv48QvoFxqs5AVd4/OmkrFZf/JwaFzS2PG2obGB98rlNWFjaC4vt8J4xyHyzcYS3BVdt0MqUvayZtscDkmGPWjwQRXniCsiM5oO76uLduXiBqJIgQAA/eLGS54Aol05caaCxWLHJ9F6M+L0DdNU1jyJ+LJTHiDjgRN32rsq6vEDaIGGQY8zvWDa6LFz1exlg88pi3fce09vv6zBnX5POxi67G5+4g8iy8ZVsUmSajuE/A8dBz0TaOumfV6SQHZQ4mxPqx6ZTvGmQXazfJNXXjH3pMa2xvl3nCg1H3JRXCdDicBPHmkJJ/mSW+cVn39Z8mTE3aTkra8n+Be5xiR4WsO2RD1jjwkeBIPVMs4pTLIk48hFhGyFtT7VjCLrDUkqxXGgjqujgJadsRm8EvZwMm8DYP/obwtZVdWDNpGxzgrEHc1ATlYs1EsGxiNo5NBVcWrpwQfP/EDfQ9kYzZ933bxoWFO46aYQgxDbjrKJsSmUZxQIkEmsgu3feZvu9wBDiUkCH82tQUSTIk0oREnNIcpO3w0X09w7DtXSODFPdN0/iH6IPbaEeAQy1lZvK9CM9HeAS4G0LHAbevkYN7TNrm0bwy+Y6DEhnqxKZCtkrBzUrsW1Rn4HBPbFubEWP1pC3iYXKTNW4F3K0mbcMqNtam8uTJ/0OWye7DAocJORd+60q/HraXw7YWbo28VRZiCBsvIFYOTmG4n1mMcdFx8uIltsyDAGsCsXFYPkLq1oRIdFgiaet61/jaCTFSWNggq1jWu9bEeWZrvU9FDym7kgtrISE/UW6I3yIRyqStXhfCi4arOowFc2lNXgg7+tDkFmcNIkElF/bLrnlePWkDhCASZZ2nuhiXANCWtt3VnrpsEBTij/hD0gKCKxQhGDd+J3AzJH7f/Ynz34ElMR9zZEcTg4KFEYG4EWAMQcWq0VX2Zv5RrbsHfdcErsMKwnzVubWOGaW2d41xkW1bCptF25p4zONdYt+YB7wMrA5beY4AABw1SURBVB/8+UjDmhjVFLo28xwDW9rm0wgSCqLqBaVFIja67FHTu9b1Dq6etO07dSZt+yLn+4yAETACRmBOBEza5kOfWFkIOVUHxvjUn0lbw9yatM2n9H6yETACRsAI7I+ASdv+2B37nSZtJm3HrqPunxEwAkbACOyAgEnbDmAt7FKTNpO2hamsu2sEjIARMAJtCJi0rVc/TNpM2tar3R6ZETACRmCDCJi0rXfSTdpM2tar3R6ZETACRmCDCJi0rXfSTdpM2tar3R6ZETACRmCDCJi0rXfSTdpM2tar3R6ZETACRmCDCJi0rXfSTdpM2tar3R6ZETACRmCDCJi0rXfSTdpM2tar3R6ZETACRmCDCJi0rXfSTdpM2tar3R6ZETACRmCDCJi0rXfSTdpM2tar3R6ZETACRmCDCJi0rXfSTdpM2tar3R6ZETACRmCDCJi0rXfSTdpM2tar3R6ZETACRmCDCJi0rXfSTdpM2tar3R6ZETACRmCDCJi0rXfSTdpM2tar3R6ZETACRmCDCJi0rXfSTdpM2tar3R6ZETACRmCDCJi0rXfSTdpM2tar3R6ZETACRmCDCJi0rXfSTdpM2tar3R6ZETACRmCDCJi0rXfSF0XavknSNSQ9Z4L5+GFJr5D0BEl3nOB5Qz3iaZJuKekKkl4/VKNuxwgYASNgBBaDgEnb+FMFxpeeiI/ko1kUaftLSVeS9HhJdxp5TkzaRgbYzRsBI2AEjMAoCJi0jQLriRp9r6TzTMRHFkvaXpQsbbeR9NSR58SkbWSA3bwRMAJGwAiMgoBJ2yiwnqjRKfnIYkkbHT97ZWX7xPjzIZO2CUD2I4yAETACRmBwBEzaBoe0tsGp+MiiSds0UyGTtqmA9nOMgBEwAkZgUARM2gaF86gaW1RM25TI2dLWjjaLwq0lvUHSy6acGD/LCOyIwA0lnVHS+6qY2FfteK8vNwJjIHA1SeeWhIvtQyM8wKRtBFCPpEmTtoaJMGlr19CnJNLGgnOuI1Fmd8MI1CHwSUlnkXRfSQ81REbgCBD4YBWXDbEiNpsY7aHFpG1oRI+nPZM2k7a9tBErG8RtrEVnr04dcNMzJLG53+uANnzrcSJA1vmFJN1Z0vOOs4udvaLU0d0kvUvS/Tqv9gXHjgBr53Ul3XukpDqTtmPXgP37Z9Jm0ra/9qzkzl+S9KA0livbhbaSWV3XMHIdPdm6hubRjICASdsIoB5Jk4sibWPHAeRzYvfokWjoRN3A0vYZSQ+W9KmJnunHGIG+CNjS1hcpXwcCJm3j6wGxsmcbMS6xaQSLIm1jxwGYtI2v6H6CETACRsAIjIuASdu4+NJ6xMpOHSK0KNI2dhyASdv4iu4nGAEjYASMwLgImLSNiy+tT8lH8tEsirSNPw0nPMHu0SnR9rOMgBEwAkZgKARM2oZC8vjaMWlrmBOTtuNT1mPoEYvhGHWVjmFs7sM6EJijSvs6kFvPKEza1jOX5UhM2kza9tJuCkM+MdW9okDkFuQGWckIZ/AtZ8YpT3NFSb+8AcK9tlI8y9Gy3Xp6VUnXk/RwSe/Z7dZeV5u09YJpkReZtJm07aW4z5R0s3TnVghMbIgMm4LCtrjtpTqT3/Tp9EUESBulM9YsLnq9jNmNpDq+0EGZoaHFpG1oRI+nPZM2k7a9tPGykt6YrBdr3whzgH6mqmD+YUnP3ws13zQHAhCZK0m60wY+ucZmfaNUhPelc4DtZ/ZCgDXzVpKw3r+91x27XWTSthteS7r6YNL2xaq21TdIOsWSRt2jr/eU9DBJb5V0qR7XH8slT5N0S0lXkPT6Y+mU+2EEjIARMAKTIbAl0naP5GaG/F58MoTne9BXJH1Z0mmautDl+vrfdGPXdUMN8SbVJ2meM1RjLe0EaXubpEtO8LyhHmHSNhSSbscIGAEjsEwETNrGnzcwvvREfCQfTSfn6iJjnQ0MiB3f3eMbgo9Pro4Bmz5JU0HaXiKJauRLEZO2pcyU+2kEjIARGAeBLZK2qffqj1Vc5Nsn4iOLJW2PqqoQ37WKKbrNSB/ZzYEhBoYPTS8teNmkbZxFcNdWSVogyNjJCrsi5+unQoC4KtZUf7ZtKsSne86WSNtce/WUfGSxpI2OT1WDaC5FOPS1Nmk7FMHD779dKofycUnnOLw5t2AEBkcgskzfLenCg7fuBudGwKRtmhmYio8smrRNMxVfzzZboqXtE+kjtneX9MipwPJzToRA1HN7k6TLGRsjcIQIPFTSfZLHAs+FZV0I3FTSsyR9NpW7WdfoTjyape7V+85JZ0jaMcW07TvIfe5bqiJMRdo4yeECfMMGyijsoz/+csI+qI1zzw3TxvW+5LIe5ynLa5U1Dhe+ZXoEriaJAuUUJh8jhMKkbfo5neqJJm0NSC+VtL0zuTvGtrS5iOdUr6ifcygCn6xit84i6b7pCx6Htuf7jcChCERx3aemGO1D2yvvD9JG8t5Fhm78yNpb6l69L4wmbSsjbbh0UWKqbI95ivbncvZ95Xzf1AjwTpB1fufsM2RT98HPMwI5Ahx6ryvp3iMl1QWRGeuLC8c0myZtxWzYPbqsT99MRdqO6aV1X4yAETACRuAEBEza1qsNtrTZ0rZe7fbIjIARMAIbRMCkbb2TbtJm0rZe7fbIjIARMAIbRMCkbb2TbtJm0rZe7fbIjIARMAIbRMCkbb2TbtJm0rZe7fbIjIARMAIbRMCkbb2TbtJm0rZe7fbIjIARMAIbRMCkbb2TbtLWQdr4Ph/fH12KOHt0KTPlfhoBI2AExkHApG0cXI+hVZM2W9qOQQ/dByNgBIyAERgIAZO2gYA8wmZM2kzajlAt3SUjYASMgBHYFwGTtn2RO/77ZidtKBcyZvX+faZhqVWW7R7dZ7Z9jxEwAkZgPQiYtO02l+DFp8U+vNtts1w9O2l7v6STSzpXj+FfUtJ1iusYAF9tIPYsl/L/gxj2JYcmbT0mxJcYASNgBIzA0SFg0tZ/Sn5c0rMlPVnS7frfdpIrbyPp+pJ+pPrG8enSr6+s/v+1NfzkgMdoVtIWH7VlAPeT9JsdI3lQImg3Tt8S/FBF9p6W7qkjbXHdcyS9u/oe56t3sOiZtB2iVr7XCBgBI2AE5kLApK0/8u+ovkn8felyjEfwil3kwpLunwxK8JgXSPpYauCPKu5xk5TMWGdI2uU5ce2spO3vJL1e0u0l/aukK0j6xx6jYPAQuK6P4cKe/2FPlmvS1mMifIkRMAJGwAgcHQImbf2mBOvYTydjEMTtURUXuVu/W7921Y8mK93nJV2jgb88RNJ9Jf1YZWzCgHSozEbabibpWpJ+rxrsm9IoHivpLj1GdEdJj0ts9pwN119X0p9IOo2kL/Zos7zEpG0P0HyLETACRsAIzI6ASVu/KfhrSU9JIVqPSLecX9J7etz+HZJekzjG2Vuuv6ykN0r6K0mX79Fu1yWzkba3SrpXcln+QQXST0j698q0eDFJxLm1ybUl/Vm64FSVafLLNRd/KpksH9+FQMPvJm17AufbjIARMAJGYFYETNq64b+5pAdUlrILSIJHvFPS+ST9rqR7dt+uF0q6pqQfSnFrTbecTdIn0o8XlfS3Pdpuu2QW0nar5OeFfCFXrgZOwB5CIdsu3y8Df3u6/tszQGKgD6usbBdP7e6Lz1ZIG1hfMYEUSR3MQVfCBgGX90hm5cCYmMGuudt3Poa8j7nFvZ5Ln75/dzqV5ffh4v+pITvnthoR4KB3iezXrvCIuPT3JeUWeSzvV18QzsTE3LWlv6yflvkReKKkczd0AyMC7rGpxKStG+mXVevJn0p6ZLoUFyauTARXKSSuSYi//9lqvllbbtnxKAhhePtwxz61u2utV8xC2jAV/lxBDP64YqA3TFY2rG1Y3Zrk9JWV7gvpx4tIeld2IWTtbZLO08Ni14bMVkgb44SMQKQx3/68pBukYMomfM6Q5g6sEYIv35z+3kX2DtTXQW6PMjP8l5gETNZ9TldkF4EVmyTEloPD53oQ3EE67UbEfJFBTujDeasQCVwSp63Wkv9uweYW1Vpyn7QIvzgt0sS5LkFPY1iQNjZ9DldxKLL+Hd8LwTx9YxXIfutKv9BV4rWfXwWoc9hAptQ5k7Z2/biKpCdVh/Dvyi771rSmf6ekR7ccxi+YroOMkewId2kT3KgfSRf8ZLV24Vk8RCYnbXdIrtDydIiZEXMjQlwb8W1t8skqaPAsaQPNXwYIG+z5UIvPVkhbYPw3KQjzCT0IzGPSTXeW9NKFWS1ynfqdylr4mSqe4f+llzBIaJ3esfmzUZJdxIGB/3KvZVoEsJj9k6Q3JLLNAgoJqxMINusBJYW+ObkyIG5LlQdL+sW0NvaJ/V3qOJfe76iViQUGS8wcYtLWjvqzEqkOK1tc/cDss5WXygh33tqvSvqFysL2geRarQvPyq+nHWLnEAjcRw9UiMlJW52VLcbAqQS3G4kJl+sYGO0Q4IdrClaMECPHi4KlLhdeoqbvhzadfrZE2r6lyqD5rCROH3+RlJlM3jqJBI/fSNbSPu7sA3V0tNshqnfKEmGa4iPPmjb/36o2f4jekonqaGBO1DDWDNzynFyJg+Ww10TEqI/E+w3RwT2BnrdZ5SYawt6PwZ2DZZiDL644y/EhgOUX6ztrCaUgKDU1h5i0NaOO65O1/xtqLiH+DILF4bDJ2hbcg+oUJFR2CdUxMIaUvAYXK+E1dSVG2qyyk5I2Av8YQFMMBgsSCxPSZUaEKVPnLYAlgJByIZANzNK5hFWuBLeNcGyJtEHE2NgoMsjp4e8lfW+DJoIlmyV1acCI2CBIzNIEywuLK4WZ/1nSt1UWDF7Yf6kZCJbb90rCqkNa95KJ6tLmqewvpPk/0j+igxC4yPrKr8XSjm7iumcB7Bv/dqz4oK8QVUITuuJtjnUMW+jX1SqDw0uS9Zf1Yi4xaWtGnooVZIeWVra4g9CtX6/Wjv9KsfFlGTKSCtgr+u4DHB7hJaxdGJZCqG7B3lvK86p4uhu1KM6kpA0rzq90+PbD2vaKZPlp6jugRlwcJJCNFTCxnJTCICF3bLxs0NSEgxQSe9AkWyJtBF9+NcWzYbo9RVLKEps/T2VWqGuDQhNnQyLI/8y1Mh3wXCw0xO/9YLKi4RqFqEJYc6FmD/jwkoINm2bdweCArvjWHRDghEzAMHEnWJsgbBC3UtDny1Ru1KtKwp3BqRYCt1ShPBLvH5sNJQksx4lAuLAp+t62v4zde5O2eoQJayEGPr5YUHcVMfNYv87YsG4EaeLrTLyTbULMG7XZ2DvYN/LPZOEB5NNZ8BJ+h5egM2Sufryl0clI2/XS4sonHtqEoPCwlOEqhY3WCfFUxFZReRh3wdNTnFGZwEDgMsCxQYcwaBZ9YmOaZEuk7XUpmxKizKkAtzPm/VxQUIgxlinmkqrPWDuxui1RODx8JY2bF49NsY6MoSsku0BOsSjyMp1jiQNeQZ9ZTDko8F/INvqKaxQCngtWtZcnshZp+ZxcOcEuVaJAZ59staWOcQ39xgXGYYFs34j9nWNcJm31qBO/jJGB/7YJmaEc9FhvONDHFw64h4MjIVh9vuJEaTKqZBAT/YzigbhhL539G2sZVsCuuNvJSNuLksWC0gpdwubICbluQY57cX3E4N6XAMZv3CUEMHMdBfXaZEukLUp9gAcnROICvyedAgIjronATKyWBELznTYyKpcoEefIBk8tP4j/bQu9wKrBps/JhxIhuNw4HJBpa5keAcIhmCcOfpyYceWXlif0lpR6aichuMBxLRKjki+80/f+sCeSbIGFjcMqhcUtx4cAB7vQMWp/9fm6z1ijMGk7KbJkm0O48Jp0CfFuGIAozo+lnvChEJIQ+DeyRjEIIXdPhIsqChg9kDhosb/UeQDzPvxA2muIu+2SSUgbFjNcan0IW3Q46mg1lZ/AlRVBnhAxBt0l3MOmC/nokq2QNnD77SzxIz4Rhq89ChhD5FAmLGwImyWbJjWJ+HsI1gysUhFEiVUuBJKEkNHH3GISxmrQZu3smqNDfv9S2sxx88aYqe9379QoFkRSs2MMxKkQr1ISVTKY+fQJelVXpgYssOBxKkPvcOUN8SmTXcbO+PpkUw993S597HMtJ1Xc1yyYCIsXp+ZTZjf/WyJ1LJ7fn7JMcT2QtZULp2gOe5C+XE+5Bl3lD+5XNuG63/v0d6hr8pIBxO7y7nQJ4/vP9C429Z/DGXE5xPawsYDd1DK0zvVtb4xxYk1hHcDlxeGhj6BneCzq9BA3Ht+ufHgWfxttovttweombSdFn32OzP/yfWibJ/aqsloAMaUYofC4sA8Su8j6DuYYgwgvgpNg3GgrHZI/lz2Ew2Zkmbb1aRLShrtz3883NBEyYov43hfSNxieF5oBN2WS5kBthbQRH4QVIuKC+C+LBKcJ4gbJKMXVFIoeCR/ED3KyzAViTr2zUiIIHMLDs8CflwGXNSnWbDBTCu4LrK0UaUZisc2zQtETLDpR9BldQ+fKEzRmck5vpRA0jlmcAo20RQ1CrsMVC9GtC0AdA4Mw83cF4uPKwYrTdR0byYUSoSUudErBNc3JljUB4cspbI5nSuVXsMJxkCDWFcFCChGHJJeFTXH14/IvJYpfNiUvDVEcc1fMsDCysRMPw6GnTiCuvLOxtkXdy/LaqEeIZYBq8LwLvIt4Noin4V2fSvrqXFzHIapN50I32ZypzTe1UKYKi0qbCxsShj7Gwa1Nz6icHzXe8rFgPSaOOwrM143TpO3EqBDDRoWE/IC3i35QLSEPsSIkA5LFehmlx2iPgzlVBigCjufmuT0eQggX9/Qtkj06afvhzFXRo/9fuyR31/H/fN8rNs+8Da5jsGxMfYSXmtNzHbEo798KaSNmkIUkCv4FgXlmdaIn2xcrBQQnNoMgdblpOLCjLepikd3HYsQfNk7ix4iVi3kMqw+bL9YQlJ4gzKmEPmF1ZZNHsDYS14dVBVKJyxcTesRKRcFm+khfc2FDxW1FrR7GS/YphACrHJnQYcXjheQFL/9/7DFH7GcdccmfDbkBl67rsCSgI31M/kOPDYzzRReCwaEC4oFViWKZeakg9JoSIWRskblVrh0cOhgLBxAIIeWDINcU5kb3kdBjnsucQtqmFpItSIhpC24nRgdSBwYI7xrWYfSRsVHyhI2HDH0OIO9IhV/jXeQ9J/i6qdTPGGMOl1KXzoVuduncnLoJPhzQKPNRhlnk2H06FUlmL8Jdx/vJ3PDvxE8RSxx6hu7yh3AMDib8oQAslp2ueDmTthNrbJenoeQccXcQJP4fC3+edMcBkbWFotfsF/zGH94tMtuDVEPKztxSZYFwB8pK4VXsI6OTtj6dmOKacKfG5tn1zK2QNk4fnA7ie6/xXVdOeZh22aTyjTAWxrqNEFN/flp4S/rOGosYwu9YmyLteWoCE3NOhjIWr9jgWDwjW4e/s4lTAoQNG8FCCNmHjIWLONrCSpFbbrFOYg2iYj+CHvEnJ6qQAl7SqQTraJ8PINPPPlXb+1435PjYvChJEzEktM1id8dUK4lEEkhauPQ5WWPRBGdiTOKLHdwXpYVyNwkLYXxFhXeAhTbmFSLDoQNXSF1NpSHHWddWBD5TLil0Nr8O8gkJ4HQf/SvfRcaH7qLDWOv4HbKEpR2Jd3EX19EQ4+6rS0NfN0Tf8zai1iX/1uTCRq+wAgcxZkwkLIQVuNSzcHHH2sH1HKBjbWkbg0nb0DPcr73APa/Rh+WVmLg8czRvDWsq61YXsYx7NkPaWPRZ1E3aTlAXyBg++LyeEAs/SkRmJScFrA9kRIVwisCnj7ubz141CZYKYpDaNoHYKKa2tEFUsa5R2DAk3J+c5tkA89pfYenAPI61okkgepBfLHN1cUdYFh6aSGsUhO63FPgq3l2SQrA2hUQ9JRZETrL5R56jCDS63BXDiuuREiFhXSvRxoICaSdsYGrJyQAWxbqYFywAWIibEmTQNYhamWWbjwUShzVxSkvb1FiO+TzitjkMYi1rOpCBMXrcZCUjFg6rYl3dQfrOIRJrTFmHtG5cJm1jznZz24E7V3DoI3QLAwiHyyZhXnlHTdoKhMJaYtJ2AjAoCXFaecE/fqVq/KlrigdiiQgy0nUix5efW0VKhcWiRVA5rlNc3FMJ5J1xE5eVSyQaYMnAopFLVMDu0h1M4iyoddaqOB2RPMPJOieMU419yc/Js31jHMQ3cYqFyBCTRaxPCKnzkOSuApi4nDhcUDS5TnBVcbjpEwc7Br6xCRAMjUUtCgvzLIgY1hh0ukk3IWJkMYIPiRd1gkuYcIdw6Y8xjrW3GQfQOlcvZR04HONOw71Z91UODpGsH03Eelc9NGmbT+PyOEUMHlj225J8Is5+ctLW5FbpG1w3BcRNJvbIbCz7wPVdi/4U/d7lGfHduzaCgXJgDYpgeDY+zLMRHEsbbIDhY+d6MtggOpHOHJtYnaJRQws3DAtUk3DixKLVVS9nl7G3XUs/iT0jBg3hVMwJKPrPf3G/cTLCjM3c405izLx0SNuY+XwNlknaaAsQ5jmQWRO37pkt5wDCi8sTCxukNzamcPvRIvgSCgGRQViXImu9TlexznFwaSJlxHpCCvvEwXaPqP8V9JWPWUeBVsaeBzXjguP9xQ1MOZCm6vtkdBMP17QOY6HjUMLBjXfSshsCpb6xhuYHMqyjcSAgUaHpm7GUh8BK13SARQ9xjfYJX2AEWyRtTdjw71MeunhnCZvhveK5Td9GDk3bh5dwb6PhpMuikgfqlerelYm22+sx3tVtY1gbaWND40RHUD1uwgjAjE/9gDJKRwxQLD75ZpcHbBIHhjuxFFxJnCqbNgpO9VgOiJdDYWNzHW+Gv74hMWb+4AoLibFhiSBVm1RuhE2/tMaV9+T9jYD/8n1hc0UipizcKEuucTfmPOVtlyQrdC//9zKmsOm0mut3/gwINllgdaQsPvTcZWEdA4++p+42neQ3YlApRtwU5EwCB+8770ffuLExxrvENrF07vLVA4h3U7kfNvbI3i6xCD3koN12IMzv2yJpa9Khpe3hMY4wwDSNa2/StsSXbc197mNpG3v8xBFByupIGxl/EL1YvMg4xcXTJ05j7H4f0j6bPiVPyhcpAuA5cSN8YJjMXJO2Q9Ae5l5ij8iubCJlWKmwbs1B2oYZ4dddorh/60hg6ZbhnQwL5VDPdzvdCHQlyZHlzprZZUDZKmnrRnhjV+yiKBuD5iiHewykDZ8+p8qStGEVCcsa4IWFk7IwS5coL1G+L5SaoLp21MGL2Jf4usTSx73k/pPhRZJBEykjs4+il0slbRT/pJRHnaWBkiDE2USZAvSWT/t1JW0seb6Pte9dSXLoILq4y168JUvbsc7rbP3aRVFm66Qf/H8IHANpw5dPcdmyoGlT7OAxxT3uq0oEvvM1iHIsJHSQ8UicH1Y30vUdz7YvysPeFxtbEymLDOilkrZIHCpJG+OOL87kiFIuZI46dMPO6vJa69KzSKrZZS82aVueHgzW410UZbCHuqG9EQjSNmdiCGUK8ky+vQezohspmskXGIgTzDMAVzTERQ6lK44L19WSM32X3v9FKtUene6aJ8oikahQJ22JdEuJK98DMt/ShIBJ27J0Y+/gxWUN0701AkbACBiBLMykDgyTtg2qyP8HWVmmQVpPtRoAAAAASUVORK5CYII=;fillColor=none;strokeColor=default;" vertex="1" parent="1">
          <mxGeometry x="486.87" y="865" width="316.25" height="110" as="geometry" />
        </mxCell>
      </root>
    </mxGraphModel>
  </diagram>
</mxfile>
